<svg width="10" height="18" viewBox="0 0 10 18" fill="none" xmlns="http://www.w3.org/2000/svg">
<g transform="scale(.7) translate(0, 10)" transform-origin="center">
<path d="M9 1.44238C6.68955 2.18173 4.74139 4.69043 3.97222 6.99794C3.46521 8.51898 3 9.43718 3 11.0535C3 12.4518 3.8103 12.4096 4.72222 13.2202C6.78656 15.0551 9 12.6426 9 10.6924C9 9.57201 9 8.45164 9 7.33127C9 5.40359 7.79451 5.94238 6.11111 5.94238C2.79295 5.94238 1 7.1267 1 10.6924C1 12.2864 2.23457 18.9948 5.27778 16.2202C7.06733 14.5885 8.57907 10.7735 8.97222 8.41461C9.59144 4.69929 7.19158 4.86575 4.5 5.94238" stroke="#140F0D" stroke-linecap="round"/>
</g>
</svg>
