<svg width="20" height="20" viewBox="0 0 20 20" xmlns="http://www.w3.org/2000/svg">
<g clip-path="url(#clip0_252_12738)">
<path d="M0.0403713 19.3948C-0.0505838 18.6568 -0.0101593 18.0369 0.30313 17.4907C0.869073 16.5018 1.49565 15.631 2.2435 14.952C3.03178 14.2435 3.78974 13.4465 4.5578 12.6937C5.00247 12.2509 5.43704 11.8081 5.88171 11.3653C6.09393 11.1586 6.31627 10.9815 6.51839 10.7454C6.88221 10.3321 6.8721 9.85975 6.49818 9.41694C6.38701 9.2841 6.26574 9.18078 6.15457 9.0627C4.79025 7.5424 3.35518 6.15495 2.05149 4.50181C1.87968 4.28041 1.69777 4.10329 1.49565 3.94093C1.09141 3.60144 0.818542 3.11436 0.575995 2.53871C0.293024 1.85974 0.191963 1.18078 0.353661 0.38373C0.747799 0.0294865 1.19247 -0.0147939 1.66746 -3.37583e-05C1.95043 1.09222 2.62754 1.68262 3.16316 2.45015C3.24401 2.56823 3.35518 2.67155 3.45624 2.68631C3.92112 2.74535 4.20409 3.18816 4.50727 3.6162C4.8812 4.11805 5.26523 4.60513 5.66948 5.0627C6.02319 5.46122 6.39712 5.84498 6.79125 6.16971C7.16518 6.46491 7.55932 6.68631 7.80187 7.23244C7.81197 7.26196 7.84229 7.29148 7.8625 7.321C8.64067 8.17709 8.77205 8.41325 9.75235 7.58668C10.5002 6.93724 11.2177 6.19923 11.9555 5.52026C12.481 5.03318 12.9964 4.54609 13.5421 4.10329C13.8959 3.82284 14.2091 3.49812 14.482 3.08484C15.3612 1.7269 16.483 0.974136 17.6856 0.442771C18.2112 0.221368 18.7468 0.324689 19.2824 0.38373C19.5351 0.41325 19.6968 0.649413 19.7776 0.974136C19.8686 1.31362 19.9292 1.66786 19.9999 2.02211C19.9191 2.14019 19.8787 2.25827 19.8079 2.30255C18.6457 3.07008 17.5846 4.08853 16.5234 5.07746C15.6442 5.88927 14.7448 6.67155 13.8756 7.49812C13.5219 7.8376 13.1985 8.23613 12.865 8.61989C12.4001 9.15126 11.9252 9.66786 11.4603 10.1992C11.3491 10.3173 11.2481 10.4502 11.1268 10.6125C11.3794 11.4981 11.9454 11.8671 12.3597 12.4575C12.7842 13.0627 13.2592 13.5793 13.7241 14.1107C14.1889 14.642 14.6437 15.2029 15.1288 15.69C15.6139 16.1771 16.1394 16.5904 16.675 17.0479C16.6447 17.3727 16.5639 17.7417 16.6043 18.0811C16.6447 18.4354 16.7963 18.7601 16.8873 19.0996C16.9479 19.3505 16.9782 19.631 17.0287 19.8819C16.7761 20.1328 16.6043 19.9409 16.4426 19.8081C14.5426 18.1992 12.6124 16.6494 10.9651 14.4797C10.6316 14.0369 10.2678 13.6383 9.92415 13.2251C9.79277 13.0627 9.66139 12.9151 9.51991 12.7823C9.1763 12.4723 8.8428 12.4428 8.48908 12.7823C7.95346 13.3136 7.39762 13.8155 6.8721 14.3616C6.22531 15.0258 5.59873 15.7195 4.96205 16.3985C4.87109 16.5018 4.75993 16.5904 4.7094 16.7232C4.45674 17.4022 4.0525 17.6679 3.54719 17.7712C3.09242 17.8597 2.68817 18.1549 2.38499 18.7011C2.16266 19.1144 1.85947 19.2915 1.49565 19.3062C1.19247 19.3062 0.879179 19.4243 0.575995 19.4686C0.414298 19.4834 0.2526 19.4391 0.0605835 19.4096L0.0403713 19.3948Z"/>
</g>
<defs>
<clipPath id="clip0_252_12738">
<rect width="20" height="20" />
</clipPath>
</defs>
</svg>
