<svg width="26" height="22" viewBox="0 0 26 22" fill="none" xmlns="http://www.w3.org/2000/svg">
<path fill-rule="evenodd" clip-rule="evenodd" d="M25.1021 3.05115L25.0991 3.02868L25.1021 3.02818V3.05115ZM25.0991 3.02868C25.0849 2.92122 25.0698 2.81244 25.0414 2.68359C25.2332 2.57062 25.4024 2.45765 25.5598 2.35264C25.6264 2.30818 25.6909 2.26514 25.754 2.22414C25.7836 2.08223 25.8228 1.95246 25.8612 1.82536C25.9409 1.56153 26.0171 1.3092 25.9966 0.983628C25.7667 0.726931 25.5271 0.704386 25.2933 0.682382C25.2342 0.676817 25.1754 0.671287 25.1172 0.662013C24.7422 0.618306 24.3667 0.573768 23.9908 0.529189L23.9905 0.529155C22.3907 0.339436 20.7848 0.148988 19.1889 0.0187829C18.5976 -0.0329052 18.0063 0.031705 17.4149 0.0963151C17.2178 0.117852 17.0207 0.139389 16.8236 0.156618C16.6493 0.168104 16.4711 0.202563 16.2929 0.237022C16.1148 0.27148 15.9366 0.305939 15.7623 0.317425C14.7464 0.317425 13.7609 0.616068 12.7754 1.07552C11.4866 1.6728 10.1827 1.62686 8.87873 1.53497C8.55275 1.512 8.22676 1.47754 7.90078 1.44308L7.90078 1.44308C7.57479 1.40862 7.24881 1.37416 6.92283 1.35119C6.32393 1.31673 5.72882 1.29376 5.13371 1.27078C4.5386 1.24781 3.9435 1.22484 3.3446 1.19038C2.25293 1.12146 1.25224 1.69578 0.297035 2.68359C0.0544429 2.93629 -0.0516911 3.28088 0.0241189 3.48763C0.109104 3.72676 0.232975 3.73023 0.364595 3.73391C0.397349 3.73482 0.430583 3.73575 0.463817 3.74033L3.02618 3.80924L5.58857 3.87816C9.03618 3.05468 12.5272 3.18469 16.0198 3.31477C19.0541 3.42777 22.0897 3.54083 25.0991 3.02868ZM25.1021 11.8266L25.0991 11.8042L25.1021 11.8037V11.8266ZM25.0991 11.8042C25.0849 11.6967 25.0698 11.5879 25.0414 11.4591C25.2331 11.3461 25.4024 11.2332 25.5597 11.1282L25.5598 11.1281C25.6264 11.0837 25.6909 11.0406 25.754 10.9996C25.7836 10.8577 25.8228 10.728 25.8612 10.6009L25.8612 10.6008C25.9409 10.337 26.0171 10.0847 25.9966 9.75912C25.7667 9.50243 25.5271 9.47988 25.2933 9.45788C25.2342 9.45231 25.1754 9.44678 25.1172 9.43751C24.7422 9.3938 24.3667 9.34926 23.9908 9.30468L23.9905 9.30465C22.3907 9.11493 20.7848 8.92448 19.1889 8.79428C18.5976 8.74259 18.0063 8.8072 17.4149 8.87181C17.2178 8.89335 17.0207 8.91488 16.8236 8.93211C16.6493 8.9436 16.4711 8.97806 16.2929 9.01252C16.1148 9.04698 15.9366 9.08143 15.7623 9.09292C14.7464 9.09292 13.7609 9.39156 12.7754 9.85101C11.4866 10.4483 10.1827 10.4024 8.87873 10.3105C8.55275 10.2875 8.22677 10.253 7.90079 10.2186C7.5748 10.1841 7.24882 10.1497 6.92283 10.1267C6.32393 10.0922 5.72881 10.0693 5.1337 10.0463C4.53859 10.0233 3.94349 10.0003 3.3446 9.96588C2.25293 9.89696 1.25224 10.4713 0.297035 11.4591C0.0544429 11.7118 -0.0516911 12.0564 0.0241189 12.2631C0.109104 12.5023 0.232975 12.5057 0.364595 12.5094C0.397349 12.5103 0.430583 12.5112 0.463817 12.5158L3.02618 12.5847L5.58857 12.6537C9.03618 11.8302 12.5272 11.9602 16.0198 12.0903C19.0542 12.2033 22.0897 12.3163 25.0991 11.8042ZM25.0991 20.4418C25.1001 20.4493 25.1011 20.4568 25.1021 20.4643V20.4413C25.1011 20.4415 25.1001 20.4417 25.0991 20.4418ZM25.0414 20.0967C25.0698 20.2256 25.0849 20.3344 25.0991 20.4418C22.0897 20.954 19.0541 20.8409 16.0198 20.7279C12.5272 20.5978 9.03618 20.4678 5.58857 21.2913C4.73192 21.2683 3.87905 21.2454 3.02618 21.2224C2.17332 21.1994 1.32047 21.1764 0.463817 21.1535C0.430583 21.1489 0.397349 21.148 0.364595 21.1471C0.232975 21.1434 0.109104 21.1399 0.0241189 20.9008C-0.0516911 20.694 0.0544429 20.3494 0.297035 20.0967C1.25224 19.1089 2.25293 18.5346 3.3446 18.6035C3.94348 18.638 4.53858 18.661 5.13368 18.6839C5.7288 18.7069 6.32392 18.7299 6.92283 18.7643C7.24881 18.7873 7.5748 18.8218 7.90078 18.8562C8.22676 18.8907 8.55275 18.9251 8.87873 18.9481C10.1827 19.04 11.4866 19.0859 12.7754 18.4887C13.7609 18.0292 14.7464 17.7306 15.7623 17.7306C15.9366 17.7191 16.1148 17.6846 16.2929 17.6502C16.4711 17.6157 16.6493 17.5813 16.8236 17.5698C17.0207 17.5525 17.2178 17.531 17.4149 17.5095C18.0063 17.4449 18.5976 17.3802 19.1889 17.4319C20.7849 17.5621 22.3908 17.7526 23.9905 17.9423C24.3665 17.9869 24.7421 18.0314 25.1172 18.0752C25.1754 18.0844 25.2341 18.09 25.2933 18.0955C25.5271 18.1175 25.7667 18.1401 25.9966 18.3968C26.0171 18.7223 25.9409 18.9747 25.8612 19.2385C25.8228 19.3656 25.7836 19.4954 25.754 19.6373C25.6909 19.6783 25.6264 19.7213 25.5598 19.7658C25.4024 19.8708 25.2332 19.9838 25.0414 20.0967Z" />
</svg>
