<svg width="58" height="69" viewBox="0 0 58 69" fill="none" xmlns="http://www.w3.org/2000/svg">
<g clip-path="url(#clip0_2211_1893)">
<path d="M32.7907 7.24355C32.8577 7.3209 32.9245 7.37051 32.9664 7.43967C33.0783 7.63334 33.1791 7.83262 33.2993 8.02902C33.4251 8.23649 33.3949 8.30046 33.2459 8.47324C32.9783 8.78257 32.6494 9.02562 32.4542 9.39564C32.2892 9.70168 32.052 9.97479 31.8564 10.2616C31.7243 10.4676 31.606 10.6874 31.4961 10.9099C31.2297 11.4689 30.9577 12.0169 30.7163 12.5842C30.3377 13.4573 29.9757 14.3359 29.6304 15.22C29.4962 15.5731 29.4119 15.9425 29.2944 16.3011C29.103 16.8847 28.9116 17.4684 28.7202 18.052C28.4714 18.8108 28.2309 19.5722 27.9904 20.3337C27.7334 21.1175 27.4764 21.9012 27.2166 22.6933C27.0553 23.1853 26.9217 23.6771 26.7687 24.1717C26.5776 24.8109 26.3781 25.4473 26.1953 26.0891C26.0425 26.6116 25.9146 27.1422 25.7534 27.6618C25.5459 28.351 25.3244 29.0264 25.1002 29.7101C24.8487 30.4772 24.5638 31.2333 24.3122 32.0004C24.1208 32.584 23.9905 33.1785 23.8074 33.7649C23.668 34.1901 23.5008 34.6155 23.353 35.038C23.3066 35.1797 23.2601 35.3214 23.2136 35.4632C23.0821 35.8079 22.8978 36.1446 22.808 36.503C22.7019 36.9391 22.4624 37.3316 22.373 37.7732C22.3078 38.0565 22.1231 38.31 21.9746 38.566C21.9348 38.3775 21.9118 38.1945 22.0274 38.0108C22.1156 37.8827 22.1258 37.7106 22.1887 37.5188C22.2081 37.516 22.2718 37.4907 22.2939 37.4795C22.3395 37.1435 22.3741 36.8409 22.4365 36.5381C22.4555 36.452 22.5273 36.374 22.574 36.2877C22.7032 36.0346 22.8517 35.7785 22.7531 35.4599C22.8194 35.3986 22.8884 35.3289 22.9658 35.2619C22.9236 35.1372 22.962 35.0482 23.0474 34.9285C23.199 34.7196 23.2781 34.4501 23.3629 34.1916C23.4559 33.9081 23.5155 33.6137 23.6029 33.3192C23.7858 32.705 23.9771 32.0936 24.1656 31.4906C24.0235 31.3609 23.9294 31.3946 23.8662 31.5309C23.7619 31.7645 23.6466 32.0037 23.5673 32.2455C23.436 32.6457 23.3465 33.0596 23.2179 33.4515C23.1222 33.7433 22.9765 34.0188 22.8725 34.3078C22.7823 34.583 22.7087 34.8636 22.6074 35.1444C22.5582 35.2944 22.4617 35.4198 22.4042 35.5671C22.3001 35.8562 22.2044 36.148 22.1171 36.4426C22.0405 36.6761 21.975 36.9039 21.8095 37.099C21.7047 37.2216 21.7002 37.4325 21.6455 37.5992C21.5088 38.0161 21.3887 38.4385 21.252 38.8554C21.159 39.1389 21.0494 39.4169 20.9648 39.7031C20.8636 40.0116 20.7847 40.3367 20.6919 40.6479C20.6645 40.7313 20.6178 40.8175 20.5905 40.9009C20.5112 41.1427 20.4208 41.3901 20.3498 41.6346C20.2216 42.082 20.1211 42.5292 19.9762 42.9711C19.7712 43.6242 19.5496 44.2718 19.3253 44.9278C19.0735 45.6394 18.8744 46.359 18.692 47.0841C18.4961 47.8787 18.4056 48.6894 18.2124 49.4756C18.1199 49.87 17.9831 50.2592 17.9323 50.6673C17.9218 50.7839 17.8392 50.9231 18.006 51.0055C18.2015 50.691 18.5027 50.4481 18.5896 50.0703C18.6684 49.7175 18.7638 49.3702 18.8509 49.0201C18.887 49.0227 18.9202 49.0059 18.9258 49.017C19.1437 49.3377 19.1714 49.3376 19.3696 49.0147C19.3778 48.9897 19.3971 48.9591 19.4219 48.9396C19.607 48.7694 19.7058 48.5524 19.8213 48.341C20.0028 48.0127 20.2149 47.7036 20.402 47.3863C20.7488 46.8075 21.0899 46.2175 21.4367 45.6386C21.6018 45.3604 21.8031 45.1124 21.9738 44.8452C22.2272 44.4665 22.4945 44.1017 22.7062 43.7094C22.7997 43.5369 22.9015 43.3671 22.9977 43.1863C23.1352 42.9359 23.2811 42.6882 23.502 42.4929C23.6097 42.3897 23.67 42.234 23.7582 42.1059C23.9952 41.7773 24.2405 41.4514 24.4858 41.1256C24.5161 41.0893 24.5604 41.0669 24.5991 41.0334C24.6488 40.9943 24.7263 40.9551 24.7344 40.9023C24.7663 40.6081 24.993 40.4515 25.1612 40.2481C25.3294 40.0448 25.4698 39.8137 25.6074 39.5911C25.7505 39.3517 25.877 39.1069 26.0061 38.8538C26.1298 38.6173 26.2618 38.3836 26.3689 38.1416C26.41 38.0443 26.4095 37.9333 26.4177 37.9083C26.5307 37.7607 26.6163 37.6687 26.6685 37.5658C26.935 37.0345 27.1932 36.5004 27.5237 35.9993C27.6697 35.7794 27.7627 35.5237 27.9366 35.3313C28.1711 35.0666 28.2749 34.722 28.5344 34.4654C28.7303 34.2619 28.8789 34.0058 29.0081 33.7527C29.1592 33.4606 29.3021 33.1658 29.5311 32.9177C29.6029 32.8396 29.6301 32.7285 29.6879 32.6366C29.9827 32.2162 30.169 31.7324 30.5027 31.334C30.682 31.125 30.7694 30.8304 30.8902 30.5746C30.9177 30.5189 30.9396 30.4522 30.9837 30.402C31.2567 30.0483 31.4294 29.634 31.6634 29.2582C31.8369 28.9827 31.9714 28.6851 32.1781 28.4205C32.4153 28.1196 32.6022 27.7746 32.7809 27.4269C33.0201 26.979 33.2426 26.5256 33.4651 26.0722C33.6518 25.6717 33.8135 25.263 33.9975 24.8708C34.1211 24.6066 34.2057 24.3204 34.4293 24.089C34.5563 23.9551 34.5802 23.7414 34.6737 23.5689C35.034 22.9206 35.4026 22.275 35.7546 21.6239C35.9388 21.2873 36.0841 20.9286 36.235 20.581C36.3091 20.4114 36.3915 20.2445 36.4489 20.0694C36.5173 19.8609 36.5634 19.636 36.6151 19.422C36.6397 19.347 36.6393 19.2638 36.6862 19.2053C36.9532 18.7849 36.9786 18.2854 37.1623 17.8377C37.2939 17.5207 37.3923 17.1928 37.5183 16.8648C37.6662 16.47 37.8197 16.0864 37.9732 15.7027C38.0197 15.5609 38.0829 15.4247 38.1293 15.2829C38.1731 15.1495 38.2168 15.0161 38.2606 14.8827C38.3232 14.6354 38.3969 14.3826 38.4429 14.1298C38.5428 13.5716 38.6178 13.0052 38.7372 12.4441C38.8783 11.7886 39.0695 11.1494 39.3189 10.5294C39.5409 9.96504 39.7296 9.38973 39.7989 8.78449C39.8227 8.54297 39.9021 8.32892 40.0509 8.1284C40.1887 7.93348 40.2875 7.71656 40.4003 7.51344C40.5212 7.2853 40.6543 7.27354 40.8051 7.48921C40.8749 7.58598 40.9199 7.70229 40.9924 7.79072C41.0649 7.87915 41.1485 7.96197 41.2487 8.02251C41.4656 8.14906 41.4739 8.15179 41.4141 8.39072C41.3786 8.52686 41.3655 8.67953 41.2855 8.7826C41.0348 9.12514 40.9978 9.51934 40.9525 9.9108C40.8912 10.4355 40.7965 10.9493 40.7546 11.4712C40.7204 11.857 40.7416 12.2426 40.7241 12.6339C40.6884 13.3056 40.6278 13.9691 40.5865 14.6297C40.5736 14.8378 40.5718 15.0404 40.57 15.2429C40.5584 15.7286 40.5469 16.2142 40.5353 16.6998C40.5163 17.377 40.5167 18.0512 40.4533 18.723C40.3476 19.8334 40.2115 20.9523 40.0781 22.0629C40.0088 22.6681 39.9395 23.2734 39.8426 23.8787C39.7294 24.5896 39.5719 25.2952 39.4394 26.009C39.4176 26.1034 39.4125 26.2033 39.3991 26.3005C39.364 26.4921 39.3205 26.681 39.2881 26.8643C39.2285 27.1587 39.2716 27.4776 39.0342 27.723C38.9129 28.4589 38.6555 29.1594 38.4008 29.8516C38.2831 30.1824 38.2154 30.5295 38.1143 30.8658C38.0542 31.0492 37.994 31.2327 37.9199 31.4023C37.7279 31.8472 37.7108 32.3495 37.4355 32.7671C37.4024 32.8117 37.411 32.8699 37.3946 32.9199C37.3344 33.1033 37.3326 33.3059 37.1668 33.4455C37.142 33.465 37.131 33.4984 37.1201 33.5317C37.0175 34.126 36.6064 34.5915 36.4566 35.161C36.1501 35.4484 36.091 35.8538 35.8956 36.196C35.7251 36.491 35.6351 36.8216 35.4506 37.1028C35.2854 37.3534 35.1757 37.6314 35.0328 37.8985C34.9833 37.9931 34.9115 38.0711 34.8621 38.1657C34.7162 38.4134 34.5621 38.6583 34.4246 38.9087C34.1908 39.34 33.971 39.7851 33.7206 40.2108C33.5693 40.4752 33.3958 40.723 33.2083 40.957C33.0097 41.1966 32.8473 41.4666 32.6488 41.7062C32.4198 41.9821 32.28 42.3241 32.079 42.6275C31.8448 42.9755 31.6191 43.3263 31.3515 43.6356C30.9818 44.0592 30.665 44.5186 30.3037 44.945C30.1409 45.1317 30.0087 45.3377 29.8376 45.5217C29.6914 45.6861 29.5063 45.8285 29.4158 46.0482C29.4103 46.0649 29.4021 46.0899 29.38 46.1011C29.0068 46.3666 28.745 46.7425 28.4359 47.0659C28.1958 47.3196 27.9474 47.5705 27.6989 47.8215C27.6437 47.8773 27.6052 47.9385 27.5444 47.9832C27.0718 48.3546 26.655 48.7812 26.1964 49.1665C25.7875 49.5126 25.4845 49.958 25.0337 50.235C25.1543 50.5146 25.1654 50.509 25.3507 50.3943C25.5498 50.2657 25.7545 50.1481 25.9536 50.0195C26.0476 49.958 26.1275 49.8549 26.2271 49.8045C26.7167 49.5218 27.0836 49.0788 27.5258 48.7436C27.8215 48.5174 28.0669 48.2192 28.382 47.9901C28.7496 47.7136 29.0976 47.3844 29.4178 47.0554C29.5889 46.8714 29.7601 46.7152 29.9842 46.5947C29.9842 46.5947 30.0063 46.5835 30.0091 46.5752C30.1157 46.25 30.4539 46.2039 30.6721 46.0169C30.9152 45.8104 31.1388 45.579 31.3596 45.3559C31.4562 45.2583 31.5277 45.1247 31.6997 45.135C31.7331 45.1459 31.7939 45.1012 31.8021 45.0762C31.8759 44.8511 32.1059 44.7972 32.2606 44.6632C32.4761 44.4846 32.7194 44.3335 32.9322 44.1632C33.192 43.9621 33.4406 43.7389 33.7591 43.6402C34.0316 43.2032 34.6029 43.1781 34.8977 42.7577C34.9527 42.6742 35.1136 42.6623 35.2103 42.5924C35.5835 42.3269 35.9846 42.0891 36.2991 41.749C36.3847 41.657 36.4981 41.5926 36.6059 41.5172C36.747 41.4249 36.888 41.3326 37.0234 41.2293C37.1837 41.1064 37.344 40.9835 37.5043 40.8606C37.7641 40.6595 38.0099 40.4446 38.2753 40.2546C38.5766 40.0395 38.8806 39.816 39.1624 39.5759C39.3558 39.4085 39.5352 39.2272 39.7398 39.0819C40.1876 38.7578 40.5768 38.3591 40.9799 37.9741C41.3417 37.631 41.6839 37.2631 42.0372 36.9172C42.3244 36.6328 42.6282 36.3538 42.9292 36.0831C43.1916 35.846 43.4596 35.6199 43.7219 35.3827C43.7855 35.3297 43.8434 35.2656 43.9014 35.2014C44.0283 35.0676 44.1386 34.9283 44.2768 34.8167C44.7355 34.4592 45.2138 34.1266 45.6781 33.7802C45.7638 33.716 45.8356 33.6379 45.9156 33.5626C45.9405 33.5431 45.9403 33.4876 45.968 33.4874C46.3723 33.3522 46.6676 33.0427 47.0217 32.8356C47.5472 32.5278 48.0364 32.1618 48.5591 31.8346C49.115 31.4905 49.6821 31.1686 50.2436 30.8356C50.3127 30.7936 50.407 30.7876 50.4957 30.7705C50.6212 30.9225 50.7384 31.0717 50.8695 31.2348C51.0715 31.1256 51.2878 31.1134 51.4422 30.9239C51.5332 30.8152 51.7107 30.8088 51.8751 30.955C51.7979 31.0498 51.7373 31.15 51.6572 31.2253C51.3727 31.4737 51.155 31.7716 50.9485 32.0918C50.7751 32.3673 50.6128 32.665 50.3141 32.8441C50.2892 32.8637 50.2644 32.8832 50.2451 32.9138C50.033 33.2229 49.8292 33.5347 49.6115 33.8327C49.38 34.1446 49.1095 34.4345 48.8669 34.752C48.674 35.0027 48.3919 35.1873 48.3103 35.5207C48.0611 35.6051 48.0654 35.9298 47.8134 36.0226C47.7082 36.062 47.634 36.2039 47.554 36.3069C47.4686 36.4267 47.4138 36.5657 47.32 36.6827C47.025 37.0476 46.7133 37.4071 46.4182 37.7721C46.2142 38.0284 46.0268 38.2902 45.8227 38.5465C45.5691 38.8696 45.2988 39.1873 45.0368 39.5077C44.8962 39.6832 44.7722 39.8642 44.6399 40.0424C44.6041 40.0953 44.5627 40.1371 44.5129 40.1762C44.4881 40.1958 44.4299 40.2044 44.4327 40.2238C44.4676 40.5677 44.1073 40.625 43.9614 40.8449C43.8127 41.0732 43.6194 41.2684 43.4429 41.469C43.3684 41.5554 43.294 41.6696 43.1888 41.7089C42.912 41.8213 42.7913 42.1049 42.5452 42.2643C42.371 42.3734 42.2638 42.5876 42.0952 42.7078C41.7717 42.9341 41.4984 43.2047 41.1945 43.4559C40.9016 43.7015 40.5698 43.9252 40.3411 44.2288C40.0847 44.5602 39.7836 44.8309 39.4408 45.0601C39.25 45.1915 39.09 45.3699 38.9466 45.5537C38.6543 45.9104 38.295 46.1896 37.933 46.4773C37.8446 46.5498 37.7396 46.617 37.6651 46.7033C37.5741 46.812 37.4858 46.9123 37.3306 46.9353C37.2807 46.9467 37.2309 46.9858 37.2006 47.022C37.0488 47.1754 36.9307 47.4229 36.7451 47.4821C36.4516 47.589 36.3309 47.8726 36.0401 47.9712C35.8324 48.0416 35.6753 48.2394 35.4928 48.3735C35.3712 48.4629 35.2637 48.5939 35.1279 48.614C34.9643 48.6342 34.8871 48.7289 34.7849 48.8155C34.5086 49.0388 34.2266 49.2511 33.9447 49.4634C33.5412 49.7651 33.1042 50.0281 32.6867 50.316C32.4738 50.4586 32.2497 50.579 32.0703 50.7602C31.9599 50.8718 31.7965 50.9198 31.6582 51.0037C31.5531 51.0708 31.4592 51.1601 31.3458 51.2245C31.1964 51.314 31.1335 51.5058 30.8923 51.5098C30.7342 51.5133 30.5687 51.7084 30.4334 51.8395C30.1877 52.0821 29.914 52.2694 29.5732 52.3516C29.5316 52.3656 29.4958 52.4185 29.4572 52.452C29.3798 52.519 29.3109 52.6165 29.2141 52.6586C28.9234 52.7849 28.6997 52.9886 28.4537 53.1757C28.241 53.346 27.9947 53.4777 27.768 53.6342C27.4943 53.8215 27.2011 53.9839 26.9469 54.196C26.5077 54.5784 25.9512 54.7837 25.5203 55.1688C25.338 55.3306 25.058 55.3681 24.8701 55.5189C24.5468 55.773 24.1787 55.9385 23.8189 56.1068C23.6113 56.205 23.429 56.3668 23.2271 56.476C22.9725 56.605 22.6955 56.6896 22.4354 56.8074C21.9455 57.0346 21.464 57.2646 20.9824 57.4945C20.4067 57.7582 19.8338 58.0136 19.2554 58.2856C18.7102 58.5409 18.165 58.7961 17.6309 59.0735C17.4539 59.1631 17.2964 59.3054 17.1417 59.4394C17.0617 59.5147 16.998 59.54 16.884 59.4934C16.7951 59.455 16.6729 59.4334 16.5815 59.4589C16.3073 59.5351 16.0276 59.6281 15.7562 59.7238C15.4544 59.828 15.1498 59.9405 14.8508 60.0641C14.6377 60.1512 14.3789 59.9832 14.4139 59.7638C14.484 59.3251 14.468 58.8673 14.7129 58.4582C14.9193 58.1103 14.7539 57.7421 14.5831 57.4183C14.4572 57.1831 14.2649 56.9815 14.1195 56.7492C13.6445 56.0024 13.1473 55.2668 12.7054 54.5032C12.3894 53.9471 12.1702 53.3488 11.8984 52.7703C11.7527 52.4547 11.6042 52.1474 11.4889 51.8234C11.3794 51.5381 11.3031 51.236 11.2157 50.9396C11.1622 50.7651 11.117 50.5932 11.0662 50.4104C11.0183 50.2469 10.9814 50.0778 10.9335 49.9144C10.8122 49.496 10.6772 49.0916 10.5726 48.6786C10.4171 48.0551 10.1813 47.4514 10.0978 46.8053C10.0544 46.4309 9.93066 46.0764 9.84848 45.7078C9.81449 45.5581 9.80823 45.4083 9.76317 45.2642C9.70678 45.0703 9.64205 44.8736 9.57732 44.6769C9.56039 44.616 9.49632 44.558 9.5044 44.5053C9.55125 43.8557 9.36527 43.2407 9.24584 42.6198C9.24011 42.5809 9.21211 42.5256 9.22304 42.4922C9.32174 42.2476 9.20141 42.0234 9.17536 41.7932C9.07167 40.9835 8.97632 40.1766 8.8837 39.3613C8.8316 38.9009 8.77949 38.4406 8.74405 37.9857C8.70848 37.5031 8.70065 37.0203 8.67342 36.5404C8.66443 36.399 8.6527 36.2659 8.64931 36.1355C8.63614 35.6971 8.59797 35.2506 8.6292 34.8176C8.65276 34.5206 8.71239 34.2261 8.71094 33.9209C8.71418 33.4326 8.77562 32.9356 8.79826 32.4443C8.80815 32.189 8.80136 31.9282 8.80292 31.6702C8.80552 31.6341 8.82193 31.5841 8.8412 31.5534C8.91542 31.4116 8.93416 31.27 8.89183 31.1176C8.87764 31.0483 8.89391 30.9705 8.89912 30.8983C8.94168 30.5152 9.04259 30.1512 9.06848 29.7626C9.09646 29.227 9.17157 28.6883 9.26062 28.1634C9.37688 27.5274 9.52648 26.9024 9.67607 26.2773C9.8284 25.6439 10.0001 25.0076 10.1691 24.3797C10.2536 24.0657 10.3409 23.7434 10.4754 23.4459C10.6071 23.1566 10.6278 22.8402 10.7402 22.5539C10.8744 22.2008 11.0531 21.8531 11.1956 21.5027C11.4397 20.8994 11.6781 20.285 11.9137 19.6789C11.9356 19.6122 11.9935 19.5481 12.0237 19.4841C12.1253 19.2589 12.2102 19.0282 12.3201 18.8056C12.4437 18.5414 12.5895 18.2937 12.7214 18.0322C12.7791 17.9126 12.8312 17.782 12.8832 17.6513C12.9217 17.5623 12.9601 17.4733 13.0124 17.3982C13.1335 17.1978 13.2573 16.989 13.3784 16.7887C13.5517 16.4853 13.6944 16.1628 13.8983 15.8787C14.1767 15.5083 14.4106 15.1048 14.6806 14.7316C14.9452 14.3751 15.1765 14.0077 15.455 13.665C15.5653 13.5257 15.745 13.4 15.9643 13.4349C16.1114 13.4647 16.184 13.5532 16.1514 13.7087C16.1353 13.8142 16.0914 13.9199 16.0502 14.0172C15.9682 14.2673 15.9742 14.3617 16.1802 14.5216C16.5477 14.8083 16.5422 14.825 16.3531 15.2893C16.1968 15.6813 16.0516 16.0677 15.9787 16.4871C15.9627 16.6203 15.9106 16.751 15.8586 16.8817C15.6558 17.4154 15.6641 17.9814 15.5474 18.5342C15.4796 18.8536 15.4784 19.1949 15.4439 19.5253C15.4069 19.9195 15.3422 20.3138 15.3163 20.7024C15.2932 21.0827 15.295 21.4711 15.2719 21.8514C15.254 22.1872 15.2112 22.5148 15.2044 22.845C15.1951 23.2114 15.1968 23.5721 15.2068 23.9355C15.2147 24.4183 15.2502 24.9009 15.2303 25.3838C15.2102 25.8112 15.1873 26.2469 15.1754 26.6771C15.1584 27.1794 15.1885 27.6787 15.1825 28.1754C15.1758 28.5056 15.1663 28.8442 15.1401 29.1773C15.0793 29.813 15.0657 30.4457 15.1158 31.0808C15.1362 31.2722 15.1093 31.4666 15.113 31.6524C15.1074 32.2324 15.0436 32.8209 15.1073 33.3867C15.1508 33.7888 15.1556 34.1966 15.1547 34.5934C15.1529 35.387 15.2898 36.1799 15.2602 36.9736C15.258 37.0929 15.2863 37.2038 15.3035 37.3202C15.3151 37.4256 15.335 37.5337 15.3272 37.642C15.2742 38.1694 15.3238 38.6936 15.3651 39.2151C15.3946 39.5756 15.3298 39.9422 15.3287 40.3113C15.33 40.5887 15.3785 40.8632 15.4075 41.1405C15.4134 41.2071 15.4303 41.268 15.4389 41.3263C15.4516 41.6536 15.4586 41.9699 15.4713 42.2972C15.4865 42.5885 15.5128 42.8742 15.5197 43.1627C15.5299 43.5539 15.5179 43.9563 15.5365 44.3502C15.5637 44.8301 15.6159 45.3182 15.6598 45.8035C15.7388 46.6605 15.8288 47.5119 15.8883 48.3718C15.9178 48.7323 15.8613 49.1017 15.8519 49.468C15.8501 49.6705 15.84 49.8704 16.0099 50.0277C16.1651 50.0047 16.1369 49.8939 16.1503 49.7967C16.1607 49.6523 16.1822 49.5024 16.212 49.3552C16.2471 49.1636 16.2906 48.9747 16.3174 48.7803C16.3924 48.2139 16.459 47.6447 16.5257 47.0756C16.5605 46.8007 16.5619 46.5149 16.5966 46.24C16.6952 45.3766 16.7854 44.5104 16.9089 43.6552C17.0109 42.9222 17.1378 42.1973 17.2731 41.4752C17.3678 40.9892 17.532 40.5166 17.5824 40.0253C17.6197 39.7143 17.7071 39.4198 17.7584 39.1226C17.8179 38.8004 17.8885 38.4727 17.9396 38.1478C18.0476 37.5091 18.1888 36.8813 18.3245 36.2424C18.4411 35.6896 18.6772 35.1668 18.7188 34.5895C18.7268 34.509 18.7652 34.42 18.7925 34.3366C18.9457 33.8697 19.1015 33.3944 19.2546 32.9275C19.3503 32.6357 19.3045 32.3251 19.4473 32.0303C19.5627 31.7911 19.5002 31.4751 19.5599 31.2084C19.6413 30.8196 19.7477 30.4389 19.843 30.0638C19.9109 29.7721 19.9761 29.4888 20.0441 29.1971C20.0905 29.0276 20.1341 28.8665 20.1971 28.7024C20.2272 28.6107 20.3073 28.5354 20.3678 28.4352C20.2419 28.2 20.4239 27.9827 20.4838 27.7437C20.511 27.6326 20.5549 27.5269 20.5904 27.4186C20.6014 27.3852 20.5956 27.3464 20.6122 27.3241C20.9313 26.7731 20.8783 26.1185 21.1224 25.543C21.1361 25.5013 21.1246 25.4236 21.144 25.4208C21.396 25.3279 21.2785 25.1232 21.2972 24.9538C21.3266 24.7234 21.3948 24.4872 21.4659 24.2704C21.5725 23.9452 21.6958 23.6255 21.8135 23.2947C21.8928 23.053 21.9721 22.8112 22.0541 22.561C22.0651 22.5277 22.0621 22.4805 22.0842 22.4693C22.3194 22.3433 22.2571 22.0828 22.3394 21.8881C22.4739 21.5905 22.5974 21.2986 22.7235 20.9983C22.7509 20.9149 22.7755 20.8399 22.8195 20.7619C22.8717 20.659 22.9378 20.5699 23.0067 20.4724C23.0425 20.4195 23.1311 20.3747 23.1254 20.3359C23.0881 20.0836 23.2425 19.8941 23.3386 19.6855C23.4402 19.4603 23.5417 19.235 23.6433 19.0097C23.7887 18.6788 24.0231 18.3863 24.099 18.0141C24.1154 17.9641 24.1929 17.9249 24.226 17.8803C24.4406 17.5074 24.6468 17.1318 24.8614 16.7589C25.0402 16.4389 25.2245 16.13 25.42 15.8155C25.4751 15.732 25.5552 15.6566 25.6186 15.5759C25.6351 15.5536 25.6794 15.5312 25.6848 15.5145C25.692 15.2675 25.894 15.1583 26.0124 14.994C26.1337 14.8213 26.2243 14.6294 26.3789 14.4677C26.5997 14.2446 26.7315 13.9554 27.0079 13.7598C27.1903 13.6257 27.3028 13.3671 27.41 13.1529C27.5392 12.8997 27.7018 12.6853 27.8894 12.479C28.0302 12.3312 28.1013 12.1145 28.2672 12.0026C28.4911 11.8545 28.6204 11.6291 28.8082 11.4505C29.1313 11.1409 29.4487 10.8202 29.7718 10.5106C29.7856 10.4967 29.8161 10.4882 29.8215 10.4715C29.9421 10.1602 30.2659 10.017 30.4283 9.74707C30.5825 9.50212 30.8205 9.39549 31.0752 9.29433C31.3714 9.17908 31.6342 9.02516 31.7103 8.68071C31.7294 8.62234 31.7513 8.55564 31.7871 8.50274C32.1069 8.09048 32.4294 7.66989 32.7933 7.20746L32.7907 7.24355ZM31.7654 32.0435C31.7216 32.1769 31.6918 32.3242 31.6314 32.4521C31.4912 32.7108 31.3314 32.9447 31.1912 33.2035C30.9711 33.593 30.8206 34.0239 30.5283 34.3805C30.4841 34.4307 30.4872 34.5056 30.4431 34.5557C30.2861 34.7813 30.2404 35.0895 29.9693 35.2407C29.9361 35.2575 29.9363 35.313 29.9143 35.3519C29.8621 35.4549 29.8099 35.5578 29.7494 35.658C29.631 35.85 29.446 36.0202 29.3997 36.2175C29.3263 36.5258 29.1471 36.7626 28.9846 37.0048C28.9296 37.0883 28.8605 37.158 28.8221 37.247C28.6435 37.5947 28.4815 37.9479 28.3029 38.2957C27.8823 39.0997 27.4089 39.8679 26.8826 40.6002C26.6236 40.9678 26.3646 41.3354 26.1029 41.7113C25.9982 41.8616 25.938 42.045 25.8221 42.1733C25.4385 42.5831 25.1996 43.0865 24.8745 43.5432C24.8083 43.6323 24.7867 43.7545 24.7401 43.8685C24.7127 43.9519 24.6715 44.0214 24.6191 44.0966C24.4484 44.3638 24.261 44.6256 24.0987 44.8956C23.829 45.352 23.6012 45.8498 23.287 46.2731C23.0251 46.6213 22.8105 46.9942 22.5626 47.3561C22.491 47.4619 22.425 47.5788 22.3533 47.6846C21.9761 48.2719 21.4709 48.7711 21.1438 49.4026C20.9322 49.8227 20.6344 50.196 20.37 50.5802C20.2048 50.8308 20.0173 51.0648 19.852 51.3153C19.5463 51.7691 19.2489 52.2257 18.9348 52.6768C18.7282 52.9691 18.4325 53.1954 18.2593 53.5264C17.9761 54.0523 17.7123 54.5752 17.6624 55.1776C17.6542 55.2026 17.621 55.2194 17.588 55.264C17.5378 55.2198 17.496 55.1784 17.4542 55.137C17.3429 55.0543 17.2459 55.0687 17.2188 55.2076C17.1996 55.2659 17.2223 55.3657 17.2614 55.4155C17.4146 55.5673 17.5901 55.7079 17.7683 55.868C18.0004 55.667 18.2187 55.5078 18.3926 55.3155C18.7707 54.9223 19.107 54.4878 19.4908 54.1057C19.7944 53.799 20.1287 53.5115 20.4658 53.2435C20.7891 52.9893 21.1348 52.7795 21.4777 52.5503C21.8316 52.3154 22.2022 52.086 22.5589 51.8428C22.8823 51.6165 23.1918 51.3763 23.5014 51.1361C23.6008 51.0579 23.7476 51.0045 23.8081 50.9043C23.9898 50.6037 24.3276 50.4744 24.5371 50.2014C24.6942 50.0036 24.9488 49.8747 25.1505 49.71C25.2002 49.6709 25.2527 49.6235 25.2858 49.5789C25.5478 49.2585 25.754 48.8829 26.1302 48.6646C26.2326 48.6058 26.3348 48.5192 26.3787 48.4136C26.461 48.2189 26.6353 48.1376 26.7873 48.012C26.8646 47.945 26.9308 47.8559 27.0137 47.8C27.304 47.5904 27.4102 47.182 27.784 47.0553C27.8034 47.0524 27.82 47.0301 27.8255 47.0134C27.9159 46.7938 28.0928 46.6486 28.2835 46.5172C28.4411 46.4027 28.5487 46.2717 28.5229 46.0971C28.7548 45.8684 29.023 45.6978 29.1605 45.4474C29.32 45.158 29.5827 44.9763 29.7756 44.7256C29.8997 44.5724 30.0321 44.4219 30.1423 44.2549C30.3186 43.9987 30.4893 43.7315 30.6656 43.4753C30.8088 43.2637 30.991 43.0741 31.0926 42.8489C31.2023 42.5986 31.3316 42.3732 31.5026 42.1615C31.5329 42.1252 31.5521 42.0669 31.5768 42.0196C31.6538 41.8694 31.7224 41.7164 31.8077 41.5689C31.97 41.299 32.1352 41.0207 32.3059 40.7534C32.6665 40.1884 33.0245 39.6316 33.3852 39.0666C33.5393 38.8216 33.6852 38.5739 33.8393 38.329C33.9577 38.1369 34.0817 37.956 34.2 37.7639C34.3129 37.5885 34.4064 37.416 34.5193 37.2407C34.6184 37.0792 34.7425 36.926 34.8276 36.7508C35.0061 36.3753 35.1596 35.9916 35.3242 35.6023C35.4395 35.3354 35.5547 35.0684 35.6449 34.7933C35.7324 34.5265 35.8922 34.2926 35.9741 34.0147C36.1761 33.3422 36.4255 32.6945 36.6609 32.0329C36.6855 31.9579 36.7074 31.8912 36.7237 31.8134C36.8137 31.5105 36.8928 31.2132 36.9829 30.9103C37.0895 30.5851 37.2405 30.2653 37.2861 29.9293C37.3801 29.2768 37.6768 28.6815 37.7348 28.0264C37.7531 27.8015 37.8769 27.5928 37.912 27.3734C38.0419 26.6958 38.1524 26.0209 38.2824 25.3433C38.3201 25.1156 38.4133 24.8876 38.4344 24.6544C38.5011 24.0852 38.5316 23.5135 38.5956 22.9527C38.6592 22.3364 38.7589 21.7227 38.8059 21.1009C38.8659 20.2987 38.9009 19.4883 38.9526 18.6834C38.9993 18.0061 39.0627 17.3343 39.1011 16.6543C39.1059 16.4989 39.1465 16.2906 38.8827 16.2225C38.8359 16.3088 38.7753 16.3812 38.7452 16.473C38.6085 16.8898 38.4607 17.3123 38.374 17.7456C38.2739 18.2761 38.1043 18.7931 37.9042 19.2907C37.7232 19.73 37.6089 20.1912 37.364 20.6003C37.2044 20.8619 37.1282 21.1786 36.9908 21.4568C36.6364 22.1717 36.268 22.8728 35.9136 23.5876C35.8972 23.6377 35.8808 23.6877 35.8644 23.7377C35.7492 24.0047 35.6367 24.2633 35.5298 24.533C35.4036 24.8333 35.2718 25.1225 35.154 25.4255C35.1103 25.5589 35.0999 25.7033 35.0394 25.8312C34.8255 26.3428 34.5949 26.849 34.3643 27.3551C34.271 27.5554 34.1749 27.764 34.0732 27.9615C33.8258 28.4344 33.5367 28.8937 33.3143 29.3748C33.0535 29.945 32.6342 30.4354 32.443 31.0468C32.4348 31.0718 32.4072 31.0997 32.3906 31.122C32.2557 31.3363 32.1292 31.5534 31.9859 31.765C31.9281 31.8568 31.8564 31.9349 31.7902 32.024L31.7654 32.0435ZM30.4718 10.7402C30.4718 10.7402 30.4246 10.7155 30.4106 10.7017C30.2973 10.7938 30.1701 10.8721 30.0708 10.9781C29.6154 11.4659 29.2379 11.9978 28.8995 12.5794C28.5721 13.1276 28.175 13.6346 27.8003 14.1582C27.5964 14.4422 27.3675 14.718 27.1692 15.0132C27.0479 15.1858 26.9741 15.4109 26.839 15.5697C26.5162 15.9349 26.3825 16.3989 26.1263 16.7859C26.052 16.9 26.0332 17.0416 25.9645 17.1668C25.7694 17.5646 25.5521 17.9458 25.3737 18.349C25.209 18.7106 25.0999 19.0996 24.9435 19.4638C24.617 20.2063 24.271 20.9517 23.9361 21.6914C23.755 22.103 23.5489 22.5064 23.3928 22.9261C23.1983 23.4349 23.076 23.9766 22.8592 24.4688C22.6561 24.9193 22.653 25.4354 22.3665 25.8586C22.3956 26.1359 22.2608 26.378 22.1761 26.6365C22.0393 27.0534 21.911 27.473 21.7743 27.8899C21.643 28.2901 21.5062 28.6792 21.3833 29.0822C21.2441 29.5629 21.1272 30.0602 21.0046 30.5464C20.9718 30.6464 20.903 30.7439 20.9062 30.8465C20.8952 31.4431 20.7176 32.0128 20.5427 32.5742C20.3978 33.0161 20.3056 33.4661 20.1857 33.9162C20.1204 34.1718 19.9967 34.4083 19.9396 34.6666C19.7847 35.3361 19.6381 36.0083 19.4998 36.6832C19.4807 36.7416 19.4949 36.8109 19.4924 36.8747C19.4905 37.0495 19.5385 37.2408 19.4727 37.3854C19.2585 37.8415 19.3108 38.3573 19.1577 38.8243C19.1358 38.891 19.1918 39.0017 19.1615 39.0379C18.9381 39.2971 18.9868 39.627 18.9188 39.9187C18.7967 40.4881 18.7106 41.0601 18.6219 41.6405C18.544 42.1875 18.3467 42.7046 18.2912 43.2681C18.225 43.9483 17.9896 44.6098 17.9374 45.3038C17.9244 45.4842 17.9553 45.559 18.0944 45.6415C18.3293 45.46 18.0471 45.0258 18.4656 44.9598C18.392 44.6494 18.4739 44.3716 18.5752 44.0908C18.6958 43.7794 18.8274 43.4625 18.8896 43.132C18.9112 43.0098 19.0217 42.8982 19.071 42.7759C19.1066 42.6675 19.1088 42.5482 19.1443 42.4398C19.251 42.1146 19.3715 41.8032 19.4865 41.4808C19.5959 41.1473 19.6913 40.8 19.8173 40.4719C19.9953 39.9854 20.1927 39.4961 20.3624 39.0069C20.5566 38.4427 20.712 37.8564 20.9229 37.2977C21.0845 36.8612 21.2905 36.4301 21.477 36.0019C21.5209 35.8962 21.5675 35.7822 21.6031 35.6738C21.6988 35.382 21.7639 35.0709 22.0208 34.8504C22.0484 34.8225 22.0621 34.7808 22.0757 34.7391C22.1605 34.4807 22.2202 34.214 22.3133 33.9583C22.4146 33.6775 22.5549 33.4187 22.6562 33.138C22.823 32.6294 22.9647 32.1126 23.1426 31.5984C23.3313 31.0231 23.5505 30.467 23.7559 29.8972C23.8708 29.5747 23.9858 29.2523 24.1008 28.9298C24.4593 27.9208 24.8623 26.9171 25.1709 25.8917C25.3046 25.4277 25.4883 24.98 25.622 24.516C25.7831 23.9686 25.9914 23.4459 26.1692 22.9039C26.4043 22.1868 26.6144 21.4616 26.8413 20.7418C26.9807 20.3166 27.1395 19.8885 27.279 19.4632C27.3993 19.0964 27.4863 18.7186 27.6066 18.3517C27.8089 17.7347 28.0252 17.1315 28.2525 16.5227C28.4496 15.9779 28.6328 15.4193 28.88 14.8908C29.2452 14.1148 29.5215 13.3005 29.9173 12.5438C30.0878 12.221 30.1803 11.8543 30.3564 11.5427C30.4911 11.3006 30.5066 11.0563 30.5165 10.801L30.4718 10.7402ZM14.9622 16.2091C14.6771 16.3188 14.6854 16.3215 14.6143 16.5383C14.5815 16.6383 14.5154 16.7275 14.4519 16.8083C14.3665 16.928 14.2644 17.0423 14.1846 17.1731C13.8734 17.6436 13.6984 18.1772 13.4762 18.6861C13.4075 18.839 13.3445 19.003 13.2842 19.1587C13.0625 19.7786 12.8491 20.4012 12.619 21.0183C12.4848 21.3714 12.3478 21.7328 12.2275 22.0997C11.9678 22.8918 11.7719 23.7141 11.726 24.5578C11.6978 25.038 11.5641 25.502 11.5969 25.993C11.597 26.0207 11.5944 26.0568 11.5918 26.0929C11.4985 26.8842 11.3885 27.67 11.3062 28.4556C11.2769 28.7138 11.3365 28.9827 11.2738 29.2299C11.1238 29.7717 11.2568 30.3232 11.1956 30.8757C11.1371 31.3921 11.3475 31.9044 11.2835 32.4374C11.2754 32.4902 11.3034 32.5456 11.3037 32.601C11.3192 32.9478 11.3457 33.289 11.3362 33.6275C11.3218 34.0938 11.263 34.5547 11.2679 35.018C11.2695 35.351 11.346 35.6808 11.3863 36.008C11.4007 36.105 11.4067 36.1993 11.4099 36.302C11.4249 36.5378 11.4482 36.7763 11.466 37.0037C11.4719 37.098 11.4669 37.1979 11.4729 37.2922C11.479 37.4143 11.4824 37.5447 11.4968 37.6695C11.5056 37.7555 11.5337 37.8386 11.5424 37.9245C11.5806 38.3711 11.6077 38.8232 11.6625 39.2752C11.7493 40.024 11.8665 40.7642 11.9616 41.5157C11.9875 41.7181 11.9774 41.918 12.0033 42.1204C12.0468 42.5225 12.107 42.9301 12.1588 43.3349C12.2339 43.9505 12.2895 44.569 12.3812 45.1901C12.4214 45.4896 12.5032 45.7749 12.4325 46.075C12.4161 46.125 12.4441 46.1804 12.4527 46.2386C12.5272 46.7432 12.599 47.2562 12.6624 47.7664C12.6825 47.9023 12.6721 48.0466 12.6811 48.1881C12.6869 48.2546 12.6928 48.3212 12.7208 48.3765C12.8329 48.6257 12.9062 48.8806 12.938 49.1496C12.9582 49.3132 12.9811 49.4685 13.0235 49.6209C13.2045 50.3636 13.3163 51.1205 13.5804 51.8351C13.7124 52.1924 13.8555 52.544 13.9903 52.893C14.0297 52.9982 14.0939 53.0839 14.274 53.0414C14.1867 52.7727 14.1549 52.5037 14.2535 52.2313C14.2617 52.2063 14.2365 52.1703 14.2281 52.1398C14.1824 51.857 14.1283 51.5715 14.0937 51.2831C14.059 50.9947 14.0521 50.7062 14.0369 50.4149C13.9926 49.8463 13.9399 49.275 13.904 48.7091C13.889 48.4734 13.9101 48.2402 13.9034 48.0071C13.8727 47.3691 13.7282 46.74 13.7363 46.0962C13.745 45.5911 13.6677 45.0949 13.632 44.5845C13.6173 44.4042 13.6414 44.2182 13.6239 44.0462C13.549 43.4584 13.5379 42.873 13.6101 42.2871C13.6181 42.2344 13.6123 42.1678 13.5844 42.1402C13.4979 42.038 13.5363 41.949 13.5802 41.8433C13.6076 41.76 13.6349 41.6766 13.6262 41.5906C13.622 41.2937 13.6012 40.9914 13.597 40.6945C13.5916 40.1479 13.5946 39.6041 13.5892 39.0575C13.5858 38.9271 13.5547 38.7968 13.5569 38.6775C13.5667 38.3944 13.6069 38.1029 13.5889 37.8199C13.5677 37.4344 13.4799 37.0547 13.5723 36.6602C13.5805 36.6352 13.5665 36.5936 13.5553 36.5715C13.4658 36.4221 13.5206 36.2831 13.5504 36.1359C13.5882 35.9082 13.6481 35.6692 13.611 35.4447C13.571 35.2007 13.5283 34.9651 13.5548 34.7152C13.5626 34.607 13.6092 34.493 13.5755 34.3988C13.4601 34.047 13.5666 33.6941 13.5455 33.3362C13.5183 32.8563 13.5659 32.3733 13.5747 31.896C13.5883 31.2356 13.4631 30.5758 13.6209 29.9257C13.64 29.8674 13.6175 29.7953 13.6116 29.7288C13.5844 29.2489 13.5682 28.7634 13.6686 28.2884C13.6902 28.1662 13.7423 28.0355 13.7362 27.9135C13.7317 27.5611 13.7079 27.2116 13.6868 26.8538C13.6923 26.8371 13.7005 26.8121 13.7059 26.7954C13.7292 26.4429 13.7525 26.0904 13.7647 25.7435C13.767 25.6242 13.7581 25.5105 13.7686 25.3939C13.8082 24.9636 13.8561 24.536 13.8846 24.1114C13.9026 23.8033 13.8567 23.4928 13.9302 23.1844C13.9792 23.0066 13.9921 22.7984 13.9774 22.6181C13.9454 22.2936 13.9938 21.9771 14.0422 21.6605C14.0744 21.4217 14.0815 21.1747 14.097 20.9305C14.1099 20.7223 14.0978 20.5059 14.1301 20.2949C14.1837 19.9062 14.2484 19.5118 14.3298 19.123C14.4381 18.5675 14.5575 18.0064 14.6825 17.4564C14.7258 17.2397 14.7468 16.9788 14.8819 16.82C15.0336 16.6389 14.9884 16.4671 15.0014 16.2866L14.9622 16.2091ZM23.927 52.5685C23.9391 52.7849 23.8201 52.8382 23.665 52.8889C23.4794 52.9481 23.2996 53.0461 23.1308 53.1385C23.0866 53.161 23.0676 53.2471 23.0567 53.3082C22.9969 53.5471 22.7567 53.8008 22.5044 53.8104C22.252 53.82 22.0945 53.9345 21.9623 54.1405C21.8714 54.2769 21.7471 54.3747 21.5584 54.359C21.4502 54.3512 21.3506 54.4016 21.3095 54.5267C21.2658 54.6601 21.1995 54.7215 21.036 54.7417C20.8613 54.7676 20.6815 54.8656 20.6242 55.0684C20.5695 55.2352 20.4728 55.305 20.3094 55.353C20.157 55.3954 20.016 55.4877 20.0058 55.6875C20.134 55.8034 20.2223 55.7031 20.3246 55.6443C20.5293 55.5267 20.7283 55.3704 20.9472 55.3221C21.4542 55.2113 21.9613 55.1006 22.4233 54.8458C22.5035 54.7982 22.5921 54.7534 22.6862 54.7196C23.0295 54.5736 23.381 54.4303 23.727 54.276C23.9097 54.1974 24.1091 54.1242 24.2806 54.0235C24.7148 53.7688 25.1491 53.5141 25.5778 53.2484C25.7298 53.1505 25.8763 53.0416 26.0256 52.9243C26.1721 52.8153 26.2963 52.6898 26.4484 52.592C26.6917 52.4409 26.9602 52.3258 27.198 52.1637C27.6127 51.8841 28.0023 51.5686 28.4283 51.3112C28.9344 51.0062 29.4015 50.6515 29.8881 50.3217C30.0181 50.235 30.1424 50.1373 30.2807 50.0533C30.5103 49.9162 30.7454 49.7902 30.9611 49.6393C31.2293 49.4687 31.4808 49.2649 31.7407 49.0915C32.0338 48.9014 32.3492 48.7278 32.6506 48.5403C32.7529 48.4816 32.8636 48.4255 32.9381 48.3391C33.1532 48.0772 33.4828 47.9729 33.7482 47.7829C33.9638 47.632 34.2129 47.5198 34.4173 47.3467C34.5444 47.2406 34.6382 47.1236 34.8099 47.0784C34.8903 47.0585 34.9705 47.011 35.034 46.9579C35.3077 46.7706 35.5759 46.5723 35.844 46.3739C36.0402 46.2259 36.2198 46.0724 36.416 45.9244C36.6344 45.7651 36.9029 45.65 37.0794 45.4493C37.2698 45.2347 37.488 45.0477 37.7063 44.8607C38.0903 44.5342 38.4743 44.2076 38.8499 43.8783C39.0736 43.6746 39.289 43.4682 39.5183 43.2756C39.8996 42.9574 40.3116 42.6862 40.6566 42.3376C41.0266 41.9695 41.4077 41.6235 41.8167 41.3052C41.8913 41.2465 41.9381 41.1603 42.0043 41.0989C42.1342 40.9845 42.2613 40.8784 42.3911 40.764C42.4795 40.6914 42.5623 40.6077 42.6507 40.5352C42.7502 40.457 42.872 40.3953 42.9492 40.3006C43.0429 40.1836 43.0894 40.0418 43.1526 39.9056C43.1662 39.8639 43.1826 39.8138 43.2242 39.7998C43.4872 39.7013 43.583 39.4373 43.7653 39.2754C43.8565 39.1945 43.967 39.1107 44.0276 39.0105C44.0909 38.902 44.1069 38.7687 44.1506 38.6353C44.248 38.7042 44.359 38.7036 44.4249 38.559C44.5923 38.1891 44.9184 37.9267 45.1526 37.6064C45.3207 37.3753 45.5277 37.1661 45.7098 36.9488C45.8642 36.7593 46.0047 36.5561 46.1508 36.3639C46.2446 36.2469 46.3272 36.1355 46.4293 36.0212C46.8129 35.6114 47.1965 35.2016 47.5829 34.7835C47.8395 34.5075 48.0878 34.2288 48.3166 33.9252C48.4131 33.7998 48.6069 33.7156 48.5613 33.4606C48.4891 33.4554 48.3975 33.4253 48.3338 33.4506C48.129 33.5404 47.9214 33.6386 47.7334 33.7616C47.2412 34.0804 46.7601 34.4213 46.2652 34.7484C46.1795 34.8127 46.0687 34.841 45.9914 34.908C45.7981 35.1032 45.5602 35.2375 45.3363 35.3857C45.1731 35.4892 45.0043 35.5816 44.8551 35.6989C44.4323 36.0312 44.0234 36.3773 43.6146 36.7234C43.2747 36.9998 42.9405 37.2873 42.6062 37.5748C42.3217 37.8231 42.0511 38.0853 41.7749 38.3364C41.449 38.6266 41.1287 38.9279 40.8028 39.2181C40.6315 39.3743 40.4464 39.5168 40.2807 39.6841C40.0544 39.9239 39.8587 40.1829 39.6407 40.4254C39.569 40.5034 39.4694 40.5539 39.3837 40.6181C39.3229 40.6628 39.2565 40.6964 39.2096 40.7549C38.8923 41.1034 38.5805 41.4629 38.1824 41.7201C38.1353 41.7509 38.1023 41.7955 38.0636 41.829C37.9172 41.9656 37.7737 42.1217 37.6218 42.2474C37.2487 42.5406 36.8757 42.8338 36.4914 43.1049C36.1901 43.32 35.9893 43.679 35.5959 43.7808C35.5571 43.7866 35.5324 43.8339 35.4964 43.859C35.3472 43.9763 35.2036 44.1047 35.0544 44.222C34.7919 44.4314 34.465 44.5273 34.2416 44.7865C34.1947 44.845 34.081 44.8539 33.9869 44.8877C33.9296 45.0905 33.9324 45.1099 33.769 45.1579C33.5059 45.2286 33.3992 45.5538 33.1053 45.5774C32.9264 45.8697 32.622 46.0099 32.3537 46.1805C32.1436 46.3148 31.9667 46.46 31.8262 46.6632C31.6208 46.6143 31.4684 46.6567 31.3752 46.8847C31.3506 46.9597 31.2287 46.9936 31.1568 47.0439C31.1236 47.0607 31.0598 47.0583 31.0405 47.0889C30.8977 47.3837 30.5596 47.4576 30.3388 47.6807C29.9523 48.0711 29.4571 48.3427 29.0679 48.7414C28.7174 49.1067 28.2245 49.2867 27.8991 49.6879C27.6537 49.986 27.3192 50.218 27.0208 50.4803C26.9021 50.5891 26.7889 50.709 26.659 50.7957C26.4018 50.9607 26.1112 51.087 25.8679 51.2658C25.6136 51.4502 25.2783 51.5157 25.1077 51.8107C25.0995 51.8357 25.0524 51.8387 25.0219 51.8472C24.8808 51.9117 24.723 51.9707 24.5874 52.0463C24.4297 52.1331 24.2999 52.2476 24.3675 52.4636C24.3788 52.5135 24.3319 52.572 24.3073 52.6471C24.174 52.6034 24.0629 52.5762 23.9018 52.5326L23.927 52.5685ZM17.0237 55.6053C16.975 55.8664 17.092 55.9601 17.242 56.0093C17.3503 56.0449 17.3943 55.967 17.4076 55.842C17.2991 55.7788 17.1767 55.7017 17.0237 55.6053ZM16.1986 56.489C16.2291 56.6961 16.3184 56.8085 16.4664 56.8262C16.4594 56.5099 16.4538 56.4989 16.1986 56.489Z" fill="#140F0D"/>
<path d="M19.3052 47.156C19.2856 47.1034 19.2409 47.0425 19.249 46.9898C19.3004 46.7204 19.3712 46.4481 19.431 46.1814C19.4663 46.0175 19.5126 45.8481 19.5562 45.6869C19.5836 45.6035 19.5859 45.5119 19.6355 45.4451C19.8254 45.1195 19.9069 44.7584 19.9467 44.3836C19.952 44.3392 19.9822 44.2752 20.0182 44.2501C20.1233 44.1829 20.1533 44.0912 20.1556 43.9719C20.1548 43.8054 20.3096 43.6992 20.2837 43.4968C20.2609 43.3693 20.4016 43.2215 20.4786 43.0713C20.5287 43.1154 20.576 43.1402 20.5733 43.1485C20.4937 43.3348 20.5474 43.5371 20.429 43.7291C20.3354 43.8739 20.3086 44.0683 20.2595 44.2461C20.1039 44.7768 19.9539 45.3187 19.7983 45.8494C19.7108 46.1162 19.6067 46.3776 19.5302 46.6388C19.4755 46.8055 19.4515 46.9915 19.4134 47.1638C19.3857 47.1639 19.358 47.164 19.3302 47.1642L19.3052 47.156Z" fill="#140F0D"/>
<path d="M21.9675 38.8407C21.9075 39.0519 21.8363 39.2409 21.8095 39.4353C21.764 39.799 21.4853 40.0862 21.5038 40.4801C21.51 40.6299 21.4303 40.7885 21.3728 40.9358C21.2662 41.261 21.1345 41.578 21.0195 41.9004C20.9977 41.9671 21.0147 42.0558 20.9762 42.1171C20.9487 42.1727 20.874 42.2036 20.8159 42.24C20.799 42.179 20.7375 42.085 20.7568 42.0543C20.9027 41.8344 20.9042 41.5486 21.0668 41.3341C21.1522 41.2144 21.1625 41.0423 21.195 40.8868C21.2708 40.4868 21.5133 40.1416 21.5307 39.7225C21.5378 39.4755 21.6199 39.2254 21.6798 38.9864C21.7098 38.8947 21.751 38.7974 21.9537 38.8547L21.9675 38.8407Z" fill="#140F0D"/>
<path d="M19.0598 48.6362C18.8897 48.4511 18.8361 48.2488 18.9436 48.1179C19.0759 47.9396 19.1333 47.7645 19.1629 47.5618C19.1793 47.5118 19.2124 47.4672 19.2371 47.4199C19.36 47.608 19.3547 47.6524 19.2371 48.011C19.1743 48.2027 19.128 48.4 19.0571 48.6445L19.0598 48.6362Z" fill="#140F0D"/>
<path d="M20.7636 42.3429C20.8425 42.6089 20.755 42.8757 20.5531 42.9849C20.4908 42.7244 20.7452 42.5677 20.7636 42.3429Z" fill="#140F0D"/>
</g>
<defs>
<clipPath id="clip0_2211_1893">
<rect width="41.6609" height="58.2027" fill="white" transform="translate(18.1362) rotate(18.1559)"/>
</clipPath>
</defs>
</svg>
