<svg width="116" height="137" viewBox="0 0 116 137" fill="none" xmlns="http://www.w3.org/2000/svg">
<g clip-path="url(#clip0_279_1788)">
<path d="M65.581 14.4871C65.7149 14.6418 65.8485 14.741 65.9323 14.8793C66.1561 15.2667 66.3577 15.6652 66.5981 16.058C66.8497 16.473 66.7892 16.6009 66.4913 16.9465C65.9561 17.5651 65.2983 18.0512 64.9079 18.7913C64.578 19.4034 64.1035 19.9496 63.7124 20.5231C63.448 20.9351 63.2116 21.3747 62.9918 21.8198C62.459 22.9379 61.915 24.0338 61.4322 25.1683C60.6749 26.9146 59.951 28.6719 59.2604 30.4401C58.9919 31.1462 58.8234 31.8851 58.5883 32.6022C58.2055 33.7695 57.8227 34.9367 57.4399 36.104C56.9423 37.6215 56.4613 39.1445 55.9803 40.6674C55.4663 42.235 54.9523 43.8025 54.4328 45.3867C54.1101 46.3705 53.8429 47.3541 53.537 48.3434C53.1547 49.6217 52.7558 50.8945 52.3902 52.1783C52.0845 53.2231 51.8288 54.2843 51.5064 55.3237C51.0913 56.702 50.6484 58.0528 50.1999 59.4202C49.6968 60.9543 49.1271 62.4666 48.624 64.0008C48.2412 65.1681 47.9805 66.357 47.6144 67.5297C47.3355 68.3802 47.0012 69.2309 46.7056 70.0759C46.6126 70.3594 46.5197 70.6429 46.4267 70.9264C46.1637 71.6158 45.7952 72.2892 45.6155 73.0059C45.4033 73.8783 44.9244 74.6631 44.7455 75.5464C44.6151 76.1131 44.2458 76.6199 43.9487 77.132C43.8692 76.755 43.8231 76.389 44.0543 76.0215C44.2306 75.7654 44.2512 75.4212 44.377 75.0377C44.4158 75.0319 44.5431 74.9813 44.5874 74.9589C44.6785 74.287 44.7478 73.6818 44.8725 73.0762C44.9105 72.904 45.054 72.7479 45.1475 72.5754C45.4058 72.0691 45.703 71.5571 45.5058 70.9199C45.6384 70.7971 45.7764 70.6577 45.9311 70.5238C45.8467 70.2745 45.9235 70.0965 46.0943 69.857C46.3975 69.4393 46.5558 68.9002 46.7253 68.3832C46.9112 67.8163 47.0305 67.2274 47.2052 66.6383C47.5711 65.4101 47.9536 64.1873 48.3307 62.9812C48.0465 62.7218 47.8582 62.7893 47.7319 63.0618C47.5234 63.529 47.2926 64.0075 47.134 64.4911C46.8716 65.2915 46.6924 66.1192 46.4354 66.903C46.244 67.4866 45.9526 68.0375 45.7445 68.6157C45.5641 69.166 45.4169 69.7272 45.2143 70.2887C45.1159 70.5889 44.9229 70.8396 44.8078 71.1343C44.5998 71.7125 44.4084 72.2961 44.2337 72.8852C44.0805 73.3521 43.9496 73.8078 43.6186 74.198C43.4089 74.4432 43.3998 74.865 43.2905 75.1985C43.017 76.0323 42.7769 76.877 42.5035 77.7108C42.3176 78.2778 42.0983 78.8338 41.9291 79.4062C41.7267 80.0232 41.5689 80.6733 41.3833 81.2958C41.3286 81.4625 41.2351 81.635 41.1804 81.8018C41.0218 82.2854 40.8411 82.7802 40.6992 83.2692C40.4427 84.164 40.2417 85.0585 39.9518 85.9423C39.542 87.2484 39.0988 88.5437 38.6501 89.8556C38.1465 91.2788 37.7483 92.7181 37.3835 94.1683C36.9916 95.7574 36.8107 97.3787 36.4243 98.9512C36.2394 99.7401 35.9657 100.518 35.8642 101.335C35.8431 101.568 35.678 101.846 36.0116 102.011C36.4025 101.382 37.0048 100.896 37.1788 100.141C37.3363 99.4349 37.5272 98.7403 37.7014 98.0402C37.7735 98.0454 37.8399 98.0118 37.8511 98.0339C38.2869 98.6755 38.3423 98.6752 38.7387 98.0295C38.7551 97.9794 38.7937 97.9182 38.8434 97.8791C39.2135 97.5387 39.4111 97.1049 39.6421 96.682C40.0051 96.0253 40.4293 95.4072 40.8036 94.7727C41.4971 93.6149 42.1793 92.435 42.8728 91.2773C43.2031 90.7207 43.6057 90.2248 43.9471 89.6903C44.4538 88.9331 44.9885 88.2034 45.4119 87.4188C45.5989 87.0738 45.8026 86.7343 45.995 86.3726C46.27 85.8718 46.5617 85.3764 47.0036 84.9858C47.219 84.7793 47.3396 84.468 47.5159 84.2118C47.9898 83.5546 48.4805 82.9029 48.9711 82.2511C49.0318 82.1787 49.1203 82.1338 49.1977 82.0669C49.2971 81.9887 49.4521 81.9102 49.4682 81.8047C49.532 81.2161 49.9854 80.9031 50.3219 80.4963C50.6584 80.0895 50.9391 79.6275 51.2144 79.1822C51.5005 78.7035 51.7534 78.2139 52.0117 77.7076C52.2591 77.2346 52.5232 76.7672 52.7373 76.2833C52.8195 76.0886 52.8185 75.8667 52.8349 75.8166C53.061 75.5214 53.232 75.3374 53.3365 75.1316C53.8695 74.0689 54.3859 73.0009 55.0469 71.9987C55.3388 71.5588 55.525 71.0473 55.8727 70.6627C56.3417 70.1331 56.5492 69.4439 57.0683 68.9308C57.4602 68.5237 57.7573 68.0117 58.0157 67.5054C58.318 66.9212 58.6037 66.3315 59.0618 65.8353C59.2053 65.6792 59.2597 65.457 59.3753 65.2733C59.9649 64.4324 60.3375 63.4649 61.005 62.668C61.3636 62.25 61.5383 61.6609 61.78 61.1491C61.8349 61.0378 61.8787 60.9044 61.967 60.8041C62.5128 60.0966 62.8584 59.268 63.3264 58.5165C63.6732 57.9653 63.9422 57.3702 64.3558 56.8409C64.83 56.2392 65.204 55.5492 65.5613 54.8538C66.0396 53.9579 66.4847 53.0511 66.9297 52.1443C67.3032 51.3433 67.6266 50.526 67.9946 49.7416C68.2417 49.2132 68.411 48.6408 68.8581 48.1779C69.112 47.9103 69.1599 47.4827 69.3469 47.1377C70.0675 45.8411 70.8047 44.55 71.5086 43.2479C71.8771 42.5745 72.1677 41.8572 72.4695 41.162C72.6177 40.8228 72.7826 40.489 72.8974 40.1388C73.0341 39.7219 73.1263 39.2719 73.2297 38.8441C73.2789 38.694 73.2781 38.5275 73.3718 38.4105C73.906 37.5699 73.9567 36.5707 74.3241 35.6754C74.5874 35.0415 74.784 34.3857 75.0361 33.7296C75.3319 32.9401 75.6389 32.1727 75.946 31.4054C76.0389 31.1219 76.1652 30.8493 76.2582 30.5658C76.3457 30.299 76.4332 30.0322 76.5207 29.7654C76.6459 29.2709 76.7933 28.7651 76.8852 28.2597C77.0852 27.1432 77.2352 26.0104 77.4739 24.8882C77.7562 23.5771 78.1385 22.2989 78.6374 21.0588C79.0814 19.9301 79.4587 18.7795 79.5972 17.569C79.6449 17.0859 79.8037 16.6578 80.1014 16.2568C80.3769 15.867 80.5745 15.4331 80.8001 15.0269C81.042 14.5706 81.3082 14.5471 81.6098 14.9784C81.7494 15.172 81.8392 15.4046 81.9843 15.5814C82.1294 15.7583 82.2966 15.9239 82.4968 16.045C82.9307 16.2981 82.9474 16.3036 82.8276 16.7814C82.7568 17.0537 82.7305 17.3591 82.5706 17.5652C82.069 18.2503 81.9951 19.0387 81.9045 19.8216C81.7819 20.8711 81.5926 21.8986 81.5088 22.9424C81.4403 23.7141 81.4828 24.4852 81.4477 25.2679C81.3764 26.6112 81.255 27.9381 81.1725 29.2593C81.1468 29.6756 81.1431 30.0808 81.1395 30.4859C81.1164 31.4572 81.0932 32.4284 81.0701 33.3997C81.0321 34.7539 81.033 36.1024 80.9062 37.446C80.6948 39.6669 80.4225 41.9047 80.1556 44.1258C80.0171 45.3362 79.8786 46.5467 79.6846 47.7575C79.4584 49.1792 79.1433 50.5904 78.8782 52.0179C78.8348 52.2068 78.8246 52.4066 78.7978 52.601C78.7275 52.9843 78.6405 53.3621 78.5757 53.7287C78.4564 54.3175 78.5427 54.9552 78.0679 55.446C77.8252 56.9178 77.3104 58.3188 76.8011 59.7032C76.5657 60.3647 76.4303 61.0591 76.2282 61.7316C76.1079 62.0985 75.9876 62.4653 75.8394 62.8046C75.4553 63.6944 75.4212 64.699 74.8704 65.5342C74.8043 65.6233 74.8215 65.7398 74.7887 65.8398C74.6684 66.2067 74.6647 66.6118 74.3332 66.8909C74.2835 66.93 74.2616 66.9967 74.2397 67.0634C74.0345 68.2521 73.2124 69.1829 72.9127 70.3221C72.2996 70.8967 72.1814 71.7075 71.7908 72.3921C71.4496 72.982 71.2697 73.6433 70.9007 74.2056C70.5702 74.7067 70.351 75.2628 70.065 75.797C69.9661 75.9861 69.8226 76.1422 69.7236 76.3314C69.432 76.8268 69.1236 77.3167 68.8486 77.8175C68.3812 78.68 67.9416 79.5701 67.4408 80.4217C67.1382 80.9504 66.7911 81.446 66.4161 81.9141C66.0189 82.3933 65.6942 82.9332 65.297 83.4125C64.8392 83.9641 64.5595 84.6481 64.1574 85.255C63.6892 85.951 63.2376 86.6525 62.7025 87.2712C61.9631 88.1184 61.3295 89.0372 60.6069 89.8899C60.2813 90.2634 60.017 90.6754 59.6748 91.0433C59.3823 91.3722 59.012 91.6571 58.831 92.0964C58.8201 92.1297 58.8037 92.1798 58.7594 92.2022C58.013 92.7331 57.4896 93.4849 56.8713 94.1318C56.3911 94.6392 55.8942 95.1411 55.3973 95.643C55.2869 95.7546 55.2098 95.877 55.0882 95.9664C54.1431 96.7093 53.3095 97.5625 52.3923 98.3329C51.5745 99.0251 50.9686 99.9161 50.0669 100.47C50.3081 101.029 50.3303 101.018 50.7009 100.789C51.0991 100.531 51.5085 100.296 51.9066 100.039C52.0947 99.916 52.2546 99.7099 52.4538 99.609C53.433 99.0436 54.1666 98.1575 55.051 97.4872C55.6425 97.0347 56.1334 96.4385 56.7636 95.9803C57.4988 95.4272 58.1946 94.7689 58.835 94.1108C59.1772 93.7428 59.5197 93.4304 59.9679 93.1895C59.9679 93.1895 60.0121 93.1671 60.0176 93.1504C60.2309 92.5 60.9072 92.4079 61.3437 92.0339C61.8299 91.6208 62.2771 91.1579 62.7188 90.7118C62.912 90.5166 63.055 90.2495 63.399 90.27C63.4657 90.2918 63.5873 90.2024 63.6037 90.1524C63.7513 89.7021 64.2113 89.5944 64.5206 89.3265C64.9517 88.9692 65.4384 88.6671 65.8639 88.3264C66.3835 87.9243 66.8806 87.4778 67.5177 87.2804C68.0627 86.4064 69.2052 86.3563 69.7948 85.5154C69.905 85.3483 70.2266 85.3245 70.4201 85.1848C71.1665 84.6539 71.9686 84.1782 72.5978 83.498C72.7689 83.314 72.9957 83.1852 73.2114 83.0343C73.4934 82.8498 73.7755 82.6652 74.0463 82.4585C74.3669 82.2128 74.6875 81.967 75.0081 81.7212C75.5276 81.319 76.0193 80.8893 76.5501 80.5092C77.1527 80.0789 77.7608 79.6319 78.3243 79.1519C78.7111 78.8169 79.0699 78.4544 79.4791 78.1638C80.3747 77.5156 81.1531 76.7181 81.9594 75.9483C82.6828 75.2621 83.3672 74.5261 84.074 73.8345C84.6482 73.2655 85.2558 72.7076 85.8579 72.1662C86.3827 71.6919 86.9186 71.2397 87.4434 70.7654C87.5705 70.6593 87.6864 70.5311 87.8023 70.4029C88.0562 70.1352 88.2768 69.8567 88.5531 69.6333C89.4706 68.9184 90.4271 68.2532 91.3558 67.5604C91.5271 67.4319 91.6706 67.2758 91.8308 67.1252C91.8805 67.0861 91.88 66.9751 91.9355 66.9748C92.7441 66.7044 93.3348 66.0855 94.0429 65.6713C95.094 65.0556 96.0724 64.3237 97.1178 63.6692C98.2295 62.981 99.3637 62.3372 100.487 61.6712C100.625 61.5872 100.814 61.5752 100.991 61.541C101.242 61.845 101.476 62.1435 101.739 62.4696C102.143 62.2511 102.575 62.2267 102.884 61.8478C103.066 61.6305 103.421 61.6176 103.75 61.9101C103.595 62.0996 103.474 62.2999 103.314 62.4506C102.745 62.9473 102.31 63.5433 101.897 64.1835C101.55 64.7347 101.225 65.3301 100.628 65.6882C100.578 65.7273 100.528 65.7664 100.49 65.8277C100.065 66.4458 99.6579 67.0694 99.2225 67.6653C98.7595 68.2892 98.2186 68.869 97.7334 69.5041C97.3475 70.0055 96.7834 70.3746 96.6201 71.0413C96.1216 71.2103 96.1303 71.8595 95.6263 72.0452C95.4159 72.1239 95.2675 72.4077 95.1076 72.6138C94.9367 72.8533 94.8271 73.1313 94.6396 73.3653C94.0495 74.0953 93.426 74.8143 92.8359 75.5442C92.4278 76.0568 92.0531 76.5803 91.645 77.0929C91.1377 77.7392 90.5971 78.3745 90.0731 79.0153C89.7918 79.3664 89.5439 79.7283 89.2793 80.0848C89.2077 80.1906 89.1249 80.2743 89.0254 80.3524C88.9757 80.3915 88.8593 80.4088 88.865 80.4476C88.9348 81.1354 88.2142 81.25 87.9223 81.6898C87.6249 82.1464 87.2384 82.5368 86.8853 82.9381C86.7363 83.1109 86.5876 83.3391 86.3772 83.4179C85.8235 83.6426 85.5821 84.2099 85.0899 84.5287C84.7414 84.7468 84.5271 85.1752 84.1899 85.4155C83.5429 85.8683 82.9963 86.4093 82.3885 86.9118C81.8028 87.4031 81.1392 87.8504 80.6817 88.4575C80.1689 89.1205 79.5668 89.6618 78.8811 90.1203C78.4995 90.383 78.1795 90.7398 77.8928 91.1075C77.3081 91.8207 76.5896 92.3793 75.8656 92.9545C75.6888 93.0997 75.4786 93.2339 75.3297 93.4067C75.1476 93.624 74.9711 93.8247 74.6606 93.8706C74.5609 93.8933 74.4614 93.9715 74.4007 94.044C74.097 94.3507 73.8608 94.8458 73.4897 94.9642C72.9027 95.178 72.6613 95.7453 72.0798 95.9424C71.6644 96.0832 71.3501 96.4788 70.9852 96.747C70.742 96.9258 70.5269 97.1877 70.2552 97.2279C69.9281 97.2684 69.7737 97.4578 69.5693 97.6309C69.0166 98.0776 68.4528 98.5022 67.889 98.9268C67.0819 99.5302 66.2079 100.056 65.373 100.632C64.9472 100.917 64.499 101.158 64.1401 101.52C63.9193 101.744 63.5924 101.84 63.3159 102.007C63.1057 102.142 62.9179 102.32 62.6911 102.449C62.3924 102.628 62.2666 103.012 61.784 103.02C61.4679 103.027 61.1369 103.417 60.8663 103.679C60.3749 104.164 59.8274 104.539 59.1459 104.703C59.0628 104.731 58.9912 104.837 58.9138 104.904C58.7592 105.038 58.6214 105.233 58.4276 105.317C57.8463 105.57 57.3989 105.977 56.907 106.351C56.4815 106.692 55.989 106.955 55.5356 107.268C54.9882 107.643 54.4017 107.968 53.8933 108.392C53.0149 109.157 51.9018 109.567 51.0401 110.338C50.6755 110.661 50.1155 110.736 49.7397 111.038C49.0931 111.546 48.3569 111.877 47.6373 112.214C47.2222 112.41 46.8576 112.734 46.4537 112.952C45.9445 113.21 45.3906 113.379 44.8702 113.615C43.8905 114.069 42.9274 114.529 41.9644 114.989C40.813 115.516 39.6671 116.027 38.5103 116.571C37.4198 117.082 36.3294 117.592 35.2614 118.147C34.9072 118.326 34.5924 118.611 34.283 118.879C34.1228 119.029 33.9955 119.08 33.7676 118.987C33.5897 118.91 33.3454 118.867 33.1626 118.918C32.6141 119.07 32.0547 119.256 31.512 119.448C30.9083 119.656 30.2991 119.881 29.7012 120.128C29.2749 120.302 28.7574 119.966 28.8274 119.528C28.9675 118.65 28.9354 117.735 29.4253 116.916C29.838 116.221 29.5072 115.484 29.1658 114.837C28.9139 114.366 28.5292 113.963 28.2386 113.498C27.2885 112.005 26.2941 110.534 25.4103 109.006C24.7782 107.894 24.3399 106.698 23.7963 105.541C23.5048 104.909 23.2079 104.295 22.9774 103.647C22.7583 103.076 22.6057 102.472 22.4309 101.879C22.3239 101.53 22.2335 101.186 22.1319 100.821C22.0361 100.494 21.9623 100.156 21.8665 99.8287C21.624 98.992 21.3539 98.1831 21.1447 97.3573C20.8337 96.1102 20.362 94.9028 20.195 93.6106C20.1083 92.8619 19.8608 92.1528 19.6965 91.4155C19.6285 91.1162 19.616 90.8166 19.5258 90.5285C19.4131 90.1406 19.2836 89.7472 19.1542 89.3539C19.1203 89.2319 18.9922 89.1161 19.0083 89.0105C19.102 87.7115 18.7301 86.4814 18.4912 85.2395C18.4797 85.1619 18.4237 85.0512 18.4456 84.9845C18.643 84.4951 18.4023 84.0468 18.3502 83.5865C18.1429 81.9671 17.9521 80.3532 17.7669 78.7226C17.6627 77.8019 17.5585 76.8812 17.4876 75.9714C17.4165 75.0062 17.4008 74.0407 17.3463 73.0809C17.3284 72.798 17.3049 72.5317 17.2981 72.2709C17.2718 71.3942 17.1954 70.5012 17.2579 69.6351C17.305 69.0411 17.4243 68.4523 17.4214 67.8419C17.4279 66.8651 17.5508 65.8712 17.596 64.8887C17.6158 64.378 17.6022 63.8565 17.6053 63.3403C17.6106 63.2682 17.6434 63.1681 17.6819 63.1069C17.8303 62.8231 17.8678 62.5399 17.7832 62.2351C17.7548 62.0965 17.7873 61.941 17.7977 61.7966C17.8829 61.0304 18.0847 60.3024 18.1365 59.5252C18.1924 58.4539 18.3427 57.3766 18.5208 56.3268C18.7533 55.0548 19.0525 53.8047 19.3517 52.5546C19.6563 51.2878 19.9998 50.0153 20.3378 48.7594C20.5068 48.1315 20.6812 47.4869 20.9502 46.8917C21.2138 46.3133 21.2552 45.6804 21.4799 45.1077C21.7484 44.4016 22.1057 43.7061 22.3908 43.0055C22.8788 41.7988 23.3556 40.57 23.827 39.3578C23.8707 39.2244 23.9866 39.0962 24.047 38.9683C24.2501 38.5178 24.4199 38.0563 24.6397 37.6113C24.8868 37.0828 25.1785 36.5875 25.4423 36.0645C25.5577 35.8253 25.6618 35.5639 25.766 35.3026C25.8428 35.1246 25.9196 34.9467 26.0243 34.7963C26.2665 34.3955 26.5142 33.9781 26.7564 33.5773C27.103 32.9707 27.3884 32.3255 27.7962 31.7574C28.353 31.0166 28.8207 30.2096 29.3608 29.4632C29.89 28.7503 30.3525 28.0154 30.9095 27.3301C31.1301 27.0515 31.4895 26.8 31.9281 26.8699C32.2224 26.9295 32.3674 27.1063 32.3023 27.4174C32.2701 27.6285 32.1823 27.8398 32.1 28.0344C31.936 28.5347 31.9479 28.7233 32.36 29.0431C33.0949 29.6166 33.084 29.6499 32.7056 30.5786C32.3931 31.3626 32.1028 32.1354 31.957 32.9741C31.9249 33.2407 31.8208 33.502 31.7166 33.7634C31.3112 34.8309 31.3276 35.9629 31.0943 37.0684C30.9586 37.7072 30.9563 38.3898 30.8873 39.0506C30.8134 39.839 30.684 40.6276 30.6322 41.4048C30.5859 42.1653 30.5896 42.9422 30.5432 43.7027C30.5076 44.3744 30.4219 45.0296 30.4084 45.6901C30.3897 46.4227 30.3931 47.1441 30.4132 47.871C30.4288 48.8365 30.5 49.8018 30.4602 50.7676C30.4198 51.6224 30.374 52.4939 30.3504 53.3541C30.3163 54.3588 30.3765 55.3574 30.3646 56.3508C30.351 57.0112 30.3321 57.6883 30.2797 58.3545C30.1582 59.626 30.1309 60.8914 30.2312 62.1617C30.2718 62.5444 30.2182 62.9331 30.2255 63.3049C30.2144 64.4648 30.0868 65.6419 30.2142 66.7733C30.3012 67.5776 30.3106 68.3933 30.3088 69.1869C30.3052 70.774 30.579 72.3598 30.52 73.9472C30.5156 74.1859 30.5721 74.4076 30.6065 74.6405C30.6296 74.8512 30.6695 75.0675 30.6539 75.284C30.5479 76.3389 30.6472 77.3872 30.7298 78.4301C30.7887 79.1513 30.659 79.8844 30.657 80.6225C30.6596 81.1774 30.7565 81.7264 30.8146 82.281C30.8263 82.4141 30.8602 82.536 30.8774 82.6525C30.9027 83.3072 30.9168 83.9398 30.942 84.5945C30.9725 85.177 31.0252 85.7483 31.039 86.3254C31.0593 87.1078 31.0354 87.9126 31.0724 88.7004C31.1269 89.6602 31.2314 90.6364 31.3192 91.6071C31.4771 93.3211 31.6571 95.0238 31.7762 96.7436C31.8351 97.4647 31.7221 98.2033 31.7033 98.9359C31.6997 99.3411 31.6794 99.7407 32.0193 100.055C32.3297 100.009 32.2732 99.7877 32.3 99.5933C32.3209 99.3047 32.3638 99.0048 32.4234 98.7104C32.4937 98.3271 32.5807 97.9493 32.6343 97.5606C32.7843 96.4277 32.9176 95.2894 33.0509 94.1511C33.1204 93.6014 33.1233 93.0298 33.1928 92.48C33.3899 90.7532 33.5703 89.0209 33.8174 87.3104C34.0212 85.8443 34.2751 84.3947 34.5456 82.9504C34.7352 81.9784 35.0635 81.0333 35.1643 80.0505C35.239 79.4286 35.4137 78.8395 35.5163 78.2452C35.6353 77.6009 35.7764 76.9454 35.8788 76.2956C36.0946 75.0181 36.3771 73.7625 36.6485 72.4848C36.8818 71.3793 37.3539 70.3336 37.4372 69.1789C37.4531 69.0179 37.5299 68.84 37.5846 68.6732C37.8908 67.7394 38.2025 66.7888 38.5088 65.855C38.7001 65.2714 38.6084 64.6503 38.8941 64.0606C39.1248 63.5822 38.9998 62.9502 39.1193 62.4168C39.2821 61.6391 39.4948 60.8778 39.6854 60.1277C39.8213 59.5443 39.9518 58.9776 40.0877 58.3942C40.1804 58.0552 40.2677 57.7329 40.3937 57.4049C40.4539 57.2214 40.614 57.0708 40.7351 56.8704C40.4832 56.4 40.8473 55.9653 40.9671 55.4875C41.0215 55.2652 41.1093 55.0539 41.1804 54.8371C41.2022 54.7704 41.1908 54.6928 41.2239 54.6482C41.8621 53.5462 41.7561 52.2371 42.2444 51.0859C42.2717 51.0025 42.2488 50.8473 42.2876 50.8415C42.7915 50.6559 42.5566 50.2464 42.5938 49.9077C42.6527 49.4468 42.7891 48.9744 42.9313 48.5408C43.1446 47.8905 43.3912 47.2511 43.6266 46.5895C43.7852 46.1059 43.9437 45.6223 44.1078 45.122C44.1297 45.0553 44.1237 44.961 44.1679 44.9386C44.6383 44.6865 44.5138 44.1655 44.6784 43.7762C44.9474 43.1811 45.1942 42.5972 45.4466 41.9966C45.5012 41.8298 45.5505 41.6797 45.6385 41.5239C45.7429 41.318 45.8752 41.1398 46.013 40.9449C46.0846 40.8391 46.2617 40.7494 46.2502 40.6718C46.1757 40.1671 46.4846 39.7882 46.6768 39.3711C46.8799 38.9205 47.083 38.47 47.2861 38.0195C47.577 37.3577 48.0458 36.7726 48.1976 36.0282C48.2304 35.9282 48.3853 35.8497 48.4515 35.7606C48.8806 35.0148 49.2931 34.2636 49.7223 33.5178C50.0799 32.8778 50.4486 32.26 50.8395 31.631C50.9497 31.4639 51.1098 31.3133 51.2366 31.1517C51.2697 31.1072 51.3583 31.0623 51.3692 31.029C51.3835 30.535 51.7874 30.3165 52.0244 29.9879C52.2669 29.6427 52.4481 29.2588 52.7572 28.9354C53.1989 28.4893 53.4624 27.9108 54.0153 27.5196C54.3802 27.2514 54.6052 26.7342 54.8195 26.3058C55.0778 25.7995 55.4031 25.3705 55.7784 24.958C56.0599 24.6625 56.2021 24.2289 56.5339 24.0053C56.9818 23.7089 57.2404 23.2581 57.6159 22.9011C58.262 22.2818 58.897 21.6405 59.5431 21.0213C59.5707 20.9934 59.6316 20.9764 59.6426 20.9431C59.8837 20.3203 60.5314 20.0341 60.8561 19.4941C61.1645 19.0042 61.6405 18.791 62.1499 18.5887C62.7424 18.3582 63.268 18.0503 63.42 17.3614C63.4583 17.2447 63.502 17.1113 63.5737 17.0055C64.2133 16.181 64.8583 15.3398 65.5862 14.4149L65.581 14.4871ZM63.5302 64.0871C63.4427 64.3539 63.3831 64.6483 63.2623 64.9042C62.9818 65.4217 62.6623 65.8894 62.3818 66.4069C61.9417 67.1861 61.6407 68.0477 61.056 68.761C60.9677 68.8613 60.974 69.0111 60.8857 69.1115C60.5717 69.5625 60.4803 70.179 59.9381 70.4814C59.8716 70.515 59.8722 70.626 59.8282 70.7039C59.7237 70.9097 59.6193 71.1156 59.4982 71.316C59.2615 71.7001 58.8914 72.0404 58.799 72.4349C58.6521 73.0516 58.2938 73.5251 57.9688 74.0096C57.8586 74.1766 57.7206 74.316 57.6438 74.494C57.2865 75.1895 56.9625 75.8959 56.6053 76.5913C55.7641 78.1993 54.8172 79.7357 53.7646 81.2005C53.2466 81.9356 52.7287 82.6707 52.2052 83.4225C51.9958 83.7232 51.8755 84.0901 51.6438 84.3465C50.8765 85.1661 50.3987 86.173 49.7484 87.0863C49.6161 87.2646 49.5729 87.509 49.4797 87.737C49.425 87.9037 49.3424 88.0429 49.2378 88.1932C48.8963 88.7277 48.5216 89.2512 48.1969 89.7911C47.6575 90.7039 47.2018 91.6996 46.5734 92.5462C46.0497 93.2425 45.6205 93.9883 45.1247 94.7122C44.9815 94.9238 44.8494 95.1575 44.7062 95.3691C43.9518 96.5439 42.9413 97.5423 42.2872 98.8053C41.864 99.6453 41.2684 100.392 40.7395 101.16C40.409 101.662 40.034 102.13 39.7035 102.631C39.0921 103.538 38.4973 104.451 37.8691 105.354C37.4559 105.938 36.8644 106.391 36.5181 107.053C35.9517 108.105 35.4241 109.15 35.3244 110.355C35.308 110.405 35.2416 110.439 35.1754 110.528C35.0751 110.44 34.9915 110.357 34.9079 110.274C34.6853 110.109 34.4912 110.137 34.4371 110.415C34.3988 110.532 34.4441 110.731 34.5223 110.831C34.8288 111.135 35.1796 111.416 35.5362 111.736C36.0002 111.334 36.437 111.016 36.7846 110.631C37.5409 109.845 38.2136 108.976 38.9811 108.211C39.5884 107.598 40.2569 107.023 40.9311 106.487C41.5778 105.979 42.2692 105.559 42.9549 105.101C43.6628 104.631 44.4039 104.172 45.1172 103.686C45.7642 103.233 46.3832 102.753 47.0022 102.272C47.2012 102.116 47.4947 102.009 47.6158 101.809C47.9791 101.207 48.6546 100.949 49.0736 100.403C49.388 100.007 49.8971 99.7494 50.3005 99.42C50.4 99.3418 50.505 99.2469 50.5711 99.1578C51.0951 98.517 51.5076 97.7657 52.2599 97.3291C52.4646 97.2116 52.6691 97.0385 52.7568 96.8272C52.9214 96.4379 53.2701 96.2752 53.5741 96.024C53.7287 95.89 53.861 95.7118 54.0269 95.5999C54.6074 95.1808 54.8199 94.364 55.5676 94.1105C55.6064 94.1048 55.6395 94.0602 55.6504 94.0269C55.8314 93.5876 56.1851 93.2972 56.5666 93.0345C56.8817 92.8054 57.0968 92.5435 57.0452 92.1941C57.5091 91.7368 58.0455 91.3956 58.3205 90.8947C58.6395 90.316 59.1648 89.9526 59.5508 89.4513C59.799 89.1448 60.0638 88.8438 60.2841 88.5097C60.6367 87.9974 60.9781 87.463 61.3307 86.9507C61.6172 86.5275 61.9815 86.1483 62.1847 85.6978C62.4042 85.1972 62.6628 84.7464 63.0047 84.3229C63.0654 84.2505 63.1037 84.1338 63.1532 84.0392C63.3071 83.7387 63.4443 83.4328 63.6149 83.1379C63.9396 82.5979 64.2698 82.0413 64.6112 81.5069C65.3326 80.3767 66.0485 79.2633 66.7698 78.1331C67.0782 77.6432 67.3698 77.1479 67.6782 76.658C67.9149 76.2739 68.1628 75.9119 68.3995 75.5278C68.6253 75.1771 68.8123 74.8321 69.0381 74.4813C69.2363 74.1585 69.4844 73.852 69.6548 73.5015C70.0118 72.7506 70.3188 71.9832 70.648 71.2047C70.8784 70.6708 71.1089 70.1369 71.2893 69.5866C71.4643 69.0529 71.7839 68.5852 71.9477 68.0294C72.3518 66.6844 72.8505 65.3889 73.3213 64.0658C73.3705 63.9157 73.4143 63.7823 73.4468 63.6268C73.627 63.021 73.7851 62.4264 73.9653 61.8206C74.1785 61.1703 74.4806 60.5306 74.5717 59.8586C74.7597 58.5536 75.3532 57.363 75.469 56.0528C75.5057 55.6031 75.7534 55.1856 75.8234 54.7469C76.0833 53.3915 76.3044 52.0419 76.5642 50.6865C76.6397 50.2311 76.8262 49.7751 76.8684 49.3088C77.0016 48.1705 77.0628 47.027 77.1906 45.9053C77.3179 44.6727 77.5174 43.4453 77.6113 42.2018C77.7313 40.5974 77.8013 38.9766 77.9047 37.3667C77.9981 36.0122 78.1249 34.6686 78.2017 33.3086C78.2113 32.9978 78.2925 32.5812 77.7649 32.4451C77.6714 32.6176 77.55 32.7625 77.4899 32.9459C77.2165 33.7797 76.9209 34.6247 76.7475 35.4913C76.5472 36.5522 76.2082 37.5861 75.808 38.5815C75.446 39.4601 75.2174 40.3824 74.7275 41.2007C74.4082 41.7239 74.2559 42.3573 73.9812 42.9136C73.2723 44.3434 72.5356 45.7455 71.8268 47.1753C71.794 47.2753 71.7611 47.3754 71.7283 47.4754C71.4979 48.0093 71.2729 48.5266 71.0591 49.0659C70.8067 49.6665 70.5432 50.245 70.3075 50.851C70.22 51.1179 70.1992 51.4065 70.0784 51.6624C69.6505 52.6857 69.1893 53.698 68.7281 54.7103C68.5414 55.1108 68.3492 55.5279 68.1459 55.923C67.6511 56.8688 67.0729 57.7874 66.6282 58.7497C66.1066 59.8899 65.268 60.8708 64.8855 62.0936C64.8691 62.1436 64.8139 62.1994 64.7808 62.244C64.511 62.6726 64.2579 63.1067 63.9714 63.5299C63.8558 63.7136 63.7123 63.8697 63.58 64.048L63.5302 64.0871ZM60.9432 21.4804C60.9432 21.4804 60.8487 21.4309 60.8208 21.4033C60.5942 21.5876 60.3398 21.7442 60.1411 21.9561C59.2304 22.9318 58.4754 23.9956 57.7986 25.1588C57.1436 26.2553 56.3496 27.2693 55.6001 28.3163C55.1923 28.8844 54.7345 29.4361 54.3379 30.0263C54.0954 30.3716 53.9478 30.8218 53.6774 31.1395C53.0319 31.8697 52.7644 32.7978 52.2522 33.5717C52.1035 33.8 52.066 34.0832 51.9285 34.3336C51.5384 35.1292 51.1038 35.8916 50.747 36.6981C50.4176 37.4211 50.1994 38.1991 49.8866 38.9277C49.2335 40.4127 48.5416 41.9034 47.8718 43.3829C47.5096 44.206 47.0973 45.0127 46.7851 45.8523C46.396 46.8698 46.1515 47.9531 45.718 48.9375C45.3117 49.8386 45.3055 50.8708 44.7326 51.7172C44.7907 52.2718 44.5211 52.756 44.3516 53.2729C44.0782 54.1067 43.8214 54.946 43.548 55.7797C43.2855 56.5802 43.0119 57.3585 42.766 58.1644C42.4877 59.1258 42.2538 60.1203 42.0088 61.0927C41.9432 61.2928 41.8054 61.4877 41.8119 61.693C41.7899 62.8863 41.4347 64.0257 41.0849 65.1484C40.7951 66.0322 40.6108 66.9322 40.3709 67.8324C40.2402 68.3436 39.9928 68.8165 39.8788 69.3332C39.5689 70.6722 39.2757 72.0166 38.9992 73.3665C38.9609 73.4832 38.9893 73.6218 38.9844 73.7495C38.9805 74.0991 39.0766 74.4815 38.9448 74.7708C38.5164 75.683 38.6212 76.7147 38.3149 77.6485C38.2712 77.7819 38.3832 78.0033 38.3225 78.0758C37.8756 78.5941 37.9731 79.254 37.8371 79.8374C37.5929 80.9762 37.4208 82.1203 37.2432 83.281C37.0875 84.375 36.693 85.4092 36.5818 86.5363C36.4496 87.8966 35.9788 89.2197 35.8744 90.6076C35.8484 90.9684 35.9101 91.1179 36.1883 91.283C36.6581 90.92 36.0937 90.0515 36.9307 89.9197C36.7835 89.2989 36.9473 88.7431 37.1499 88.1816C37.3911 87.5589 37.6543 86.9249 37.7788 86.2639C37.822 86.0195 38.0429 85.7964 38.1415 85.5518C38.2126 85.335 38.2171 85.0963 38.2881 84.8796C38.5014 84.2292 38.7426 83.6065 38.9725 82.9616C39.1912 82.2946 39.3821 81.5999 39.6342 80.9438C39.9902 79.9709 40.3849 78.9922 40.7242 78.0138C41.1128 76.8853 41.4234 75.7129 41.8453 74.5953C42.1684 73.7224 42.5804 72.8602 42.9536 72.0037C43.0413 71.7924 43.1346 71.5644 43.2057 71.3476C43.3971 70.764 43.5272 70.1418 44.0411 69.7008C44.0963 69.645 44.1236 69.5617 44.151 69.4783C44.3205 68.9613 44.44 68.428 44.6262 67.9165C44.8288 67.355 45.1093 66.8375 45.3119 66.276C45.6454 65.2588 45.929 64.2252 46.2847 63.1967C46.662 62.0461 47.1006 60.934 47.5112 59.7943C47.7412 59.1495 47.9711 58.5046 48.201 57.8597C48.9182 55.8417 49.7242 53.8343 50.3413 51.7834C50.6087 50.8553 50.9762 49.96 51.2436 49.032C51.5657 47.9371 51.9824 46.8917 52.3378 45.8078C52.8081 44.3737 53.2284 42.9232 53.682 41.4836C53.9609 40.6332 54.2786 39.777 54.5575 38.9265C54.7981 38.1928 54.9721 37.4372 55.2127 36.7034C55.6173 35.4694 56.0499 34.263 56.5045 33.0454C56.8988 31.9558 57.2652 30.8385 57.7594 29.7816C58.4899 28.2297 59.0425 26.6009 59.8341 25.0875C60.175 24.4421 60.3602 23.7086 60.7122 23.0853C60.9818 22.6012 61.0128 22.1127 61.0325 21.602L60.9432 21.4804ZM29.924 32.4183C29.3536 32.6376 29.3703 32.643 29.2281 33.0766C29.1625 33.2767 29.0302 33.4549 28.9034 33.6165C28.7326 33.856 28.5284 34.0845 28.3687 34.3462C27.7463 35.2871 27.3964 36.3544 26.9518 37.3721C26.8146 37.678 26.6886 38.0061 26.568 38.3175C26.1245 39.5572 25.6977 40.8024 25.2376 42.0367C24.9691 42.7428 24.6952 43.4656 24.4545 44.1994C23.935 45.7835 23.5434 47.4281 23.4515 49.1156C23.3951 50.076 23.1276 51.0041 23.1933 51.986C23.1936 52.0415 23.1884 52.1136 23.1832 52.1858C22.9965 53.7683 22.7765 55.3399 22.612 56.9112C22.5534 57.4276 22.6724 57.9653 22.5472 58.4598C22.2472 59.5435 22.5131 60.6465 22.3908 61.7514C22.2736 62.7842 22.6945 63.8088 22.5664 64.8749C22.5503 64.9804 22.6063 65.0911 22.6068 65.2021C22.6378 65.8956 22.691 66.5779 22.672 67.2551C22.6431 68.1875 22.5255 69.1093 22.5354 70.036C22.5385 70.7019 22.6914 71.3615 22.7722 72.016C22.8009 72.2101 22.8129 72.3987 22.8194 72.604C22.8493 73.0755 22.896 73.5525 22.9314 74.0074C22.9434 74.196 22.9333 74.3959 22.9452 74.5845C22.9575 74.8286 22.9643 75.0894 22.9932 75.339C23.0106 75.5109 23.0669 75.6771 23.0844 75.8491C23.1607 76.7421 23.2149 77.6464 23.3246 78.5504C23.4981 80.0479 23.7326 81.5284 23.9227 83.0314C23.9746 83.4362 23.9543 83.8359 24.0061 84.2407C24.0931 85.045 24.2135 85.8601 24.3172 86.6698C24.4672 87.9011 24.5785 89.138 24.7619 90.3802C24.8424 90.9791 25.006 91.5499 24.8646 92.1499C24.8318 92.25 24.8878 92.3607 24.905 92.4772C25.054 93.4864 25.1975 94.5123 25.3244 95.5328C25.3645 95.8045 25.3437 96.0932 25.3617 96.3761C25.3734 96.5092 25.3851 96.6424 25.4411 96.7531C25.6654 97.2514 25.812 97.7612 25.8756 98.2992C25.9159 98.6264 25.9618 98.9369 26.0464 99.2417C26.4085 100.727 26.632 102.241 27.1602 103.67C27.4244 104.385 27.7106 105.088 27.9802 105.786C28.0588 105.996 28.1872 106.168 28.5474 106.083C28.3729 105.545 28.3093 105.007 28.5065 104.463C28.5229 104.413 28.4726 104.341 28.4557 104.28C28.3642 103.714 28.2561 103.143 28.1868 102.566C28.1175 101.989 28.1037 101.412 28.0732 100.83C27.9846 99.6926 27.8794 98.55 27.8074 97.4183C27.7775 96.9467 27.8196 96.4804 27.8063 96.0143C27.7448 94.7382 27.456 93.4799 27.472 92.1924C27.4895 91.1823 27.335 90.1897 27.2636 89.169C27.2341 88.8084 27.2823 88.4364 27.2474 88.0925C27.0976 86.9167 27.0754 85.7459 27.2196 84.5743C27.2358 84.4688 27.2241 84.3356 27.1683 84.2804C26.9954 84.0759 27.0722 83.898 27.16 83.6867C27.2147 83.5199 27.2693 83.3531 27.2519 83.1812C27.2435 82.5875 27.2018 81.9828 27.1935 81.389C27.1827 80.2958 27.1887 79.2081 27.178 78.1149C27.1712 77.8542 27.1089 77.5936 27.1134 77.355C27.1329 76.7889 27.2133 76.2058 27.1774 75.6399C27.1349 74.8687 26.9593 74.1093 27.1442 73.3204C27.1606 73.2704 27.1325 73.1873 27.1101 73.143C26.9311 72.8442 27.0408 72.5662 27.1004 72.2718C27.1759 71.8163 27.2957 71.3385 27.2214 70.8894C27.1415 70.4014 27.056 69.9301 27.1091 69.4304C27.1247 69.2139 27.218 68.9859 27.1505 68.7976C26.9197 68.094 27.1327 67.3881 27.0905 66.6724C27.0361 65.7127 27.1313 64.7466 27.149 63.792C27.176 62.4711 26.9257 61.1516 27.2413 59.8514C27.2796 59.7347 27.2345 59.5907 27.2228 59.4575C27.1683 58.4977 27.136 57.5268 27.3368 56.5768C27.38 56.3324 27.4841 56.0711 27.4719 55.827C27.463 55.1222 27.4153 54.4232 27.3731 53.7076C27.384 53.6742 27.4004 53.6242 27.4114 53.5908C27.458 52.8858 27.5046 52.1808 27.529 51.487C27.5334 51.2484 27.5157 51.0209 27.5368 50.7877C27.6159 49.9272 27.7117 49.0721 27.7687 48.2227C27.8047 47.6066 27.713 46.9855 27.8598 46.3688C27.958 46.0131 27.9838 45.5968 27.9543 45.2362C27.8902 44.5873 27.9871 43.9541 28.0839 43.321C28.1482 42.8434 28.1625 42.3495 28.1935 41.861C28.2193 41.4446 28.195 41.0119 28.2596 40.5898C28.3669 39.8124 28.4963 39.0237 28.659 38.246C28.8757 37.135 29.1144 36.0128 29.3644 34.9128C29.4511 34.4795 29.493 33.9576 29.7633 33.6399C30.0667 33.2777 29.9764 32.9341 30.0024 32.5733L29.924 32.4183ZM47.8534 105.137C47.8777 105.57 47.6396 105.676 47.3295 105.778C46.9584 105.896 46.5987 106.092 46.2612 106.277C46.1726 106.322 46.1346 106.494 46.113 106.616C45.9932 107.094 45.513 107.602 45.0083 107.621C44.5036 107.64 44.1884 107.869 43.9241 108.281C43.7423 108.554 43.4936 108.749 43.1163 108.718C42.8998 108.702 42.7006 108.803 42.6186 109.053C42.5311 109.32 42.3985 109.443 42.0714 109.483C41.7222 109.535 41.3625 109.731 41.248 110.137C41.1386 110.47 40.9451 110.61 40.6183 110.706C40.3135 110.791 40.0315 110.975 40.0112 111.375C40.2675 111.607 40.444 111.406 40.6487 111.289C41.0581 111.053 41.4561 110.741 41.8939 110.644C42.908 110.423 43.9221 110.201 44.8461 109.692C45.0065 109.596 45.1836 109.507 45.3719 109.439C46.0584 109.147 46.7616 108.861 47.4535 108.552C47.8189 108.395 48.2177 108.248 48.5606 108.047C49.4292 107.538 50.2977 107.028 51.155 106.497C51.4592 106.301 51.7522 106.083 52.0506 105.849C52.3436 105.631 52.5921 105.38 52.8962 105.184C53.383 104.882 53.92 104.652 54.3955 104.327C55.225 103.768 56.0042 103.137 56.8561 102.622C57.8683 102.012 58.8025 101.303 59.7757 100.643C60.0356 100.47 60.2843 100.275 60.5609 100.107C61.02 99.8324 61.4904 99.5804 61.9216 99.2785C62.4581 98.9373 62.961 98.5297 63.4808 98.183C64.0671 97.8027 64.6978 97.4555 65.3007 97.0807C65.5054 96.9631 65.7268 96.851 65.8757 96.6783C66.3059 96.1544 66.9651 95.9458 67.4958 95.5658C67.9271 95.264 68.4253 95.0395 68.8342 94.6934C69.0884 94.4812 69.2759 94.2472 69.6194 94.1567C69.7801 94.1171 69.9405 94.0219 70.0676 93.9158C70.615 93.5413 71.1512 93.1446 71.6874 92.7479C72.0799 92.4518 72.439 92.1448 72.8315 91.8487C73.2682 91.5302 73.8052 91.3 74.1584 90.8987C74.5391 90.4695 74.9756 90.0955 75.4121 89.7215C76.1801 89.0683 76.9481 88.4152 77.6994 87.7566C78.1468 87.3493 78.5775 86.9364 79.0362 86.5512C79.7987 85.9148 80.6227 85.3724 81.3128 84.6752C82.0527 83.939 82.8149 83.2471 83.6329 82.6103C83.7822 82.493 83.8756 82.3205 84.0082 82.1978C84.2678 81.9689 84.522 81.7568 84.7817 81.528C84.9585 81.3828 85.1241 81.2155 85.301 81.0703C85.4999 80.9139 85.7434 80.7906 85.8979 80.6012C86.0854 80.3672 86.1783 80.0837 86.3046 79.8111C86.332 79.7277 86.3648 79.6277 86.4479 79.5995C86.9739 79.4027 87.1656 78.8745 87.5302 78.5508C87.7125 78.389 87.9336 78.2214 88.0547 78.021C88.1812 77.8039 88.2133 77.5374 88.3008 77.2706C88.4956 77.4083 88.7175 77.4072 88.8492 77.118C89.1841 76.3783 89.8362 75.8533 90.3047 75.2128C90.6409 74.7505 91.055 74.3322 91.4191 73.8976C91.7279 73.5187 92.0089 73.1121 92.3011 72.7278C92.4886 72.4938 92.654 72.271 92.8582 72.0424C93.6254 71.2228 94.3926 70.4032 95.1653 69.5669C95.6785 69.0149 96.1752 68.4575 96.6327 67.8503C96.8257 67.5996 97.2132 67.4312 97.1221 66.9211C96.9778 66.9108 96.7944 66.8506 96.6671 66.9012C96.2574 67.0808 95.8423 67.2771 95.4662 67.5232C94.4818 68.1608 93.5198 68.8426 92.5299 69.4969C92.3585 69.6254 92.1369 69.682 91.9822 69.8159C91.5958 70.2063 91.1199 70.4751 90.672 70.7714C90.3457 70.9784 90.0082 71.1632 89.7097 71.3978C88.8641 72.0624 88.0464 72.7546 87.2287 73.4469C86.5489 73.9996 85.8804 74.5746 85.2119 75.1495C84.6429 75.6463 84.1017 76.1706 83.5493 76.6728C82.8975 77.2532 82.2569 77.8558 81.605 78.4362C81.2626 78.7487 80.8922 79.0336 80.561 79.3682C80.1083 79.8477 79.7169 80.3658 79.281 80.8507C79.1375 81.0068 78.9383 81.1077 78.7669 81.2362C78.6453 81.3256 78.5125 81.3929 78.4187 81.5099C77.7841 82.2068 77.1606 82.9257 76.3642 83.4403C76.2702 83.5018 76.2041 83.5909 76.1267 83.6579C75.834 83.9313 75.547 84.2435 75.2431 84.4947C74.497 85.0812 73.7508 85.6676 72.9823 86.2097C72.3797 86.6401 71.9781 87.3579 71.1914 87.5617C71.1138 87.5732 71.0643 87.6677 70.9924 87.718C70.6939 87.9526 70.4067 88.2093 70.1082 88.4439C69.5832 88.8627 68.9295 89.0547 68.4827 89.573C68.3889 89.69 68.1615 89.7078 67.9733 89.7754C67.8587 90.181 67.8644 90.2199 67.5376 90.3158C67.0112 90.4572 66.798 91.1076 66.2102 91.1549C65.8523 91.7394 65.2435 92.0199 64.707 92.3611C64.2866 92.6296 63.933 92.9199 63.652 93.3264C63.241 93.2286 62.9363 93.3134 62.7499 93.7693C62.7007 93.9194 62.4569 93.9872 62.3131 94.0879C62.2467 94.1215 62.1191 94.1166 62.0806 94.1778C61.7949 94.7675 61.1188 94.9152 60.6771 95.3613C59.9042 96.1421 58.9138 96.6854 58.1354 97.4828C57.4343 98.2133 56.4486 98.5734 55.7978 99.3758C55.3069 99.972 54.6378 100.436 54.0412 100.961C53.8037 101.178 53.5774 101.418 53.3175 101.591C52.8031 101.921 52.2219 102.174 51.7354 102.532C51.2268 102.9 50.5561 103.031 50.215 103.621C50.1986 103.671 50.1043 103.677 50.0434 103.694C49.7611 103.823 49.4454 103.941 49.1743 104.093C48.8589 104.266 48.5993 104.495 48.7345 104.927C48.7571 105.027 48.6634 105.144 48.6142 105.294C48.3475 105.207 48.1253 105.152 47.8032 105.065L47.8534 105.137ZM34.047 111.211C33.9496 111.733 34.1835 111.92 34.4835 112.019C34.7002 112.09 34.7882 111.934 34.8148 111.684C34.5978 111.558 34.353 111.403 34.047 111.211ZM32.3967 112.978C32.4578 113.392 32.6364 113.617 32.9324 113.652C32.9183 113.02 32.9071 112.998 32.3967 112.978Z" fill="#140F0D"/>
<path d="M38.6105 94.312C38.5711 94.2067 38.4818 94.0851 38.4979 93.9796C38.6008 93.4408 38.7424 92.8962 38.862 92.3629C38.9325 92.0351 39.0252 91.6961 39.1125 91.3738C39.1672 91.2071 39.1718 91.0239 39.2711 90.8902C39.6507 90.239 39.8137 89.5168 39.8934 88.7672C39.9041 88.6784 39.9645 88.5504 40.0364 88.5001C40.2465 88.3659 40.3067 88.1825 40.3111 87.9438C40.3095 87.6109 40.6192 87.3984 40.5673 86.9936C40.5218 86.7385 40.8033 86.443 40.9572 86.1426C41.0574 86.2309 41.152 86.2803 41.1465 86.297C40.9874 86.6696 41.0947 87.0742 40.858 87.4583C40.6708 87.7478 40.6171 88.1365 40.519 88.4922C40.2078 89.5537 39.9078 90.6373 39.5966 91.6988C39.4216 92.2324 39.2133 92.7551 39.0605 93.2775C38.9511 93.6111 38.9029 93.9831 38.8269 94.3276C38.7714 94.3278 38.7159 94.3281 38.6605 94.3284L38.6105 94.312Z" fill="#140F0D"/>
<path d="M43.9353 77.6814C43.8153 78.1038 43.6728 78.4819 43.6192 78.8706C43.5283 79.598 42.9708 80.1724 43.0078 80.9602C43.0203 81.2599 42.8609 81.577 42.7458 81.8717C42.5326 82.522 42.2693 83.156 42.0393 83.8009C41.9956 83.9343 42.0297 84.1117 41.9526 84.2341C41.8977 84.3454 41.7482 84.4072 41.632 84.4799C41.5982 84.358 41.4753 84.1699 41.5138 84.1087C41.8057 83.6688 41.8086 83.0972 42.1338 82.6683C42.3047 82.4288 42.3252 82.0846 42.3903 81.7736C42.5419 80.9737 43.0268 80.2831 43.0616 79.445C43.0759 78.951 43.24 78.4507 43.3598 77.9729C43.4199 77.7895 43.5022 77.5948 43.9077 77.7093L43.9353 77.6814Z" fill="#140F0D"/>
<path d="M38.1196 97.2723C37.7795 96.9022 37.6722 96.4976 37.8873 96.2357C38.1519 95.8792 38.2667 95.529 38.3258 95.1236C38.3586 95.0236 38.4248 94.9345 38.4742 94.8399C38.7201 95.216 38.7094 95.3048 38.4743 96.0219C38.3485 96.4054 38.2561 96.7999 38.1141 97.289L38.1196 97.2723Z" fill="#140F0D"/>
<path d="M41.5269 84.6858C41.6848 85.2177 41.5098 85.7513 41.1059 85.9698C40.9814 85.4488 41.4902 85.1354 41.5269 84.6858Z" fill="#140F0D"/>
</g>
<defs>
<clipPath id="clip0_279_1788">
<rect width="83.3217" height="116.405" fill="white" transform="translate(36.2725) rotate(18.1559)"/>
</clipPath>
</defs>
</svg>
