<svg width="34" height="70" viewBox="0 0 34 70" fill="none" xmlns="http://www.w3.org/2000/svg">
<path d="M3.92503 22.24C4.24503 22.03 4.53503 22.18 4.75503 22.47C4.95503 22.73 5.17503 23.01 5.24503 23.32C5.36503 23.86 5.64503 24.3 5.89503 24.77C6.36503 25.67 6.92503 26.53 7.47503 27.38C7.70503 27.73 7.86503 28.12 8.07503 28.48C8.46503 29.15 8.75503 29.87 9.11503 30.55C9.43503 31.16 9.67503 31.81 9.94503 32.44C10.195 33.04 10.395 33.65 10.635 34.26C10.775 34.63 10.955 34.98 11.115 35.34C11.355 35.92 11.605 36.49 11.825 37.07C11.945 37.38 12.005 37.7 12.095 38.02C12.225 38.47 12.365 38.92 12.505 39.37C12.595 39.66 12.685 39.95 12.785 40.23C12.925 40.62 13.085 41.01 13.235 41.4C13.265 41.47 13.305 41.54 13.325 41.61C13.595 42.38 13.855 43.15 14.115 43.92C14.155 44.04 14.205 44.16 14.225 44.29C14.275 44.58 14.365 44.84 14.535 45.1C14.685 45.33 14.735 45.61 14.835 45.87C14.945 46.17 15.105 46.46 15.165 46.76C15.295 47.5 15.715 48.12 15.915 48.83C16.035 49.28 16.255 49.7 16.435 50.14C16.585 50.5 16.805 50.85 16.895 51.22C17.005 51.67 17.355 52 17.365 52.49C17.365 52.84 17.585 53.15 17.815 53.5C17.865 53.38 17.905 53.32 17.905 53.26C17.905 52.05 18.015 50.84 18.115 49.63C18.205 48.47 18.345 47.32 18.285 46.15C18.245 45.32 18.275 44.49 18.285 43.67C18.285 43.42 18.345 43.17 18.375 42.91C18.445 42.35 18.535 41.79 18.585 41.22C18.655 40.41 18.645 39.59 18.755 38.79C18.815 38.37 18.755 37.96 18.825 37.55C18.905 37.15 18.935 36.74 18.975 36.34C19.005 36.01 19.005 35.68 19.055 35.35C19.125 34.84 19.215 34.32 19.295 33.81C19.475 32.77 19.635 31.72 19.845 30.69C20.045 29.65 20.285 28.62 20.525 27.59C20.765 26.56 21.025 25.54 21.285 24.51C21.445 23.88 21.645 23.26 21.825 22.64C22.095 21.73 22.365 20.82 22.635 19.91C22.835 19.24 23.035 18.57 23.255 17.91C23.435 17.37 23.615 16.83 23.825 16.3C23.995 15.88 24.225 15.48 24.415 15.06C24.875 14.02 25.305 12.96 25.765 11.92C26.255 10.81 26.745 9.70997 27.275 8.61997C27.685 7.78997 28.145 6.97997 28.605 6.17997C29.265 5.02997 29.905 3.87997 30.685 2.79997C30.975 2.39997 31.345 2.09997 31.675 1.74997C31.885 1.52997 32.045 1.26997 32.225 1.02997C32.275 0.969966 32.315 0.909966 32.375 0.839966C32.435 0.879966 32.515 0.899966 32.535 0.949966C32.835 1.70997 33.185 2.46997 33.145 3.29997C33.115 3.96997 32.975 4.63997 32.875 5.29997C32.815 5.69997 32.725 6.09997 32.655 6.49997C32.555 7.09997 32.465 7.70997 32.365 8.30997C32.185 9.36997 32.015 10.42 31.815 11.47C31.665 12.3 31.465 13.11 31.315 13.94C31.135 14.93 30.995 15.93 30.825 16.92C30.665 17.87 30.535 18.83 30.155 19.73C30.095 19.88 30.075 20.05 30.035 20.21C29.815 21.02 29.525 21.81 29.235 22.6C29.005 23.21 28.835 23.83 28.635 24.45C28.565 24.67 28.485 24.88 28.425 25.1C28.305 25.54 28.205 25.99 28.095 26.43C27.995 26.84 27.905 27.24 27.815 27.65C27.775 27.84 27.765 28.03 27.745 28.21C27.705 28.49 27.695 28.77 27.615 29.03C27.475 29.46 27.275 29.88 27.105 30.31C27.045 30.46 26.985 30.62 26.945 30.77C26.925 30.83 26.915 30.92 26.945 30.96C27.165 31.24 26.985 31.46 26.835 31.68C26.765 31.79 26.685 31.87 26.735 32.02C26.755 32.09 26.705 32.18 26.665 32.26C26.585 32.46 26.495 32.66 26.405 32.85C26.275 33.12 26.225 33.38 26.335 33.69C26.425 33.96 26.255 34.2 26.105 34.43C25.855 34.82 25.785 35.27 25.715 35.72C25.705 35.81 25.775 35.9 25.795 35.96C25.705 36.19 25.635 36.41 25.555 36.61C25.505 36.74 25.475 36.85 25.555 36.97C25.585 37.01 25.585 37.09 25.575 37.14C25.465 37.83 25.355 38.52 25.235 39.21C25.105 39.99 24.945 40.76 24.815 41.54C24.745 41.94 24.715 42.35 24.665 42.75C24.605 43.2 24.525 43.65 24.475 44.1C24.405 44.73 24.345 45.36 24.165 45.97C24.045 46.37 23.965 46.78 23.865 47.18C23.825 47.38 23.815 47.58 23.765 47.78C23.685 48.13 23.555 48.47 23.495 48.83C23.425 49.23 23.185 49.6 23.295 50.04C23.325 50.16 23.265 50.3 23.225 50.43C23.185 50.59 23.085 50.74 23.085 50.9C23.085 51.12 23.045 51.32 22.975 51.52C22.855 51.9 22.825 52.28 22.815 52.68C22.815 52.99 22.715 53.31 22.655 53.62C22.585 54.06 22.515 54.5 22.445 54.94C22.425 55.04 22.425 55.15 22.375 55.23C22.295 55.38 22.225 55.53 22.315 55.7C22.335 55.73 22.335 55.78 22.325 55.81C22.255 56.01 22.105 56.23 22.135 56.41C22.175 56.64 22.175 56.84 22.115 57.04C22.075 57.18 22.015 57.33 21.935 57.45C21.815 57.63 21.885 57.73 22.055 57.85C22.125 57.75 22.195 57.66 22.255 57.56C22.515 57.02 22.765 56.47 23.015 55.93C23.455 55.01 23.895 54.09 24.325 53.17C24.645 52.47 25.055 51.81 25.425 51.13C25.735 50.56 25.985 49.96 26.285 49.38C26.395 49.17 26.435 48.91 26.705 48.82C26.725 48.82 26.745 48.78 26.745 48.77C26.745 48.31 27.085 48 27.235 47.61C27.275 47.52 27.335 47.43 27.395 47.35C27.565 47.11 27.725 46.87 27.895 46.64C28.325 46.06 28.755 45.48 29.195 44.91C29.375 44.67 29.575 44.44 29.785 44.22C29.865 44.13 29.985 44.07 30.065 43.98C30.235 43.79 30.385 43.58 30.545 43.39C30.915 42.96 31.395 42.79 31.945 42.82C32.095 42.82 32.245 42.81 32.385 42.78C32.545 42.74 32.635 42.8 32.655 42.96C32.665 43.02 32.655 43.09 32.655 43.15C32.655 43.47 32.665 43.78 32.655 44.1C32.645 44.24 32.585 44.4 32.495 44.52C32.335 44.74 32.215 44.97 32.205 45.25C32.205 45.33 32.145 45.41 32.085 45.47C31.835 45.72 31.595 45.96 31.435 46.3C31.325 46.53 31.175 46.75 31.035 46.98C30.905 47.19 30.715 47.36 30.545 47.55C30.505 47.6 30.445 47.64 30.415 47.69C30.085 48.19 29.745 48.68 29.435 49.18C29.055 49.82 28.685 50.47 28.325 51.12C28.035 51.64 27.785 52.19 27.495 52.71C27.325 53.02 27.105 53.3 26.935 53.61C26.475 54.45 26.035 55.3 25.585 56.14C25.545 56.22 25.485 56.29 25.445 56.37C25.245 56.72 25.045 57.07 24.835 57.43C24.535 57.95 24.215 58.45 23.945 58.98C23.555 59.76 23.085 60.5 22.795 61.33C22.645 61.75 22.485 62.16 22.305 62.57C22.065 63.12 21.785 63.64 21.405 64.11C21.225 64.33 21.135 64.63 20.995 64.88C20.715 65.37 20.435 65.85 20.145 66.33C20.015 66.55 19.945 66.78 19.895 67.04C19.815 67.49 19.665 67.94 19.515 68.38C19.425 68.65 19.275 68.91 19.135 69.21C18.635 68.73 18.225 68.25 18.145 67.55C18.045 66.73 18.215 65.95 18.495 65.19C18.525 65.11 18.545 65.02 18.585 64.91C18.225 64.87 18.015 64.66 17.845 64.37C17.765 64.23 17.625 64.12 17.525 64C17.005 63.34 16.695 62.57 16.405 61.8C16.315 61.57 16.215 61.36 16.025 61.19C15.955 61.13 15.905 61.03 15.855 60.95C15.735 60.74 15.585 60.56 15.415 60.39C15.135 60.12 14.915 59.77 14.665 59.47C14.405 59.15 14.205 58.78 13.885 58.5C13.655 58.3 13.525 57.98 13.345 57.72C12.985 57.21 12.605 56.72 12.245 56.21C11.995 55.86 11.785 55.48 11.545 55.13C11.375 54.89 11.175 54.68 10.995 54.46C10.935 54.39 10.875 54.33 10.825 54.26C10.655 54.06 10.485 53.85 10.325 53.64C10.245 53.53 10.155 53.41 10.115 53.28C10.005 52.9 9.79503 52.61 9.45503 52.4C9.32503 52.32 9.24503 52.15 9.14503 52.01C9.11503 51.97 9.09503 51.92 9.05503 51.9C8.64503 51.64 8.42503 51.25 8.26503 50.81C8.22503 50.71 8.12503 50.64 8.06503 50.54C7.61503 49.8 7.15503 49.07 6.72503 48.32C6.54503 48 6.45503 47.63 6.29503 47.31C6.01503 46.76 5.68503 46.23 5.41503 45.67C5.11503 45.03 4.66503 44.46 4.50503 43.75C4.48503 43.68 4.43503 43.61 4.39503 43.55C4.36503 43.51 4.30503 43.47 4.30503 43.44C4.30503 42.89 3.92503 42.5 3.77503 42.01C3.64503 41.59 3.43503 41.22 3.24503 40.83C3.23503 40.81 3.22503 40.78 3.21503 40.76C3.01503 39.88 2.65503 39.05 2.39503 38.19C2.32503 37.94 2.34503 37.65 2.12503 37.45C2.12503 36.93 1.90503 36.45 1.80503 35.95C1.70503 35.44 1.60503 34.94 1.52503 34.43C1.40503 33.7 1.28503 32.98 1.18503 32.25C1.11503 31.71 1.09503 31.16 1.01503 30.63C0.975028 30.34 1.01503 30.05 0.975028 29.77C0.925028 29.46 0.915028 29.15 0.865028 28.84C0.805028 28.43 0.865028 28.04 0.895028 27.64C0.985028 26.82 1.13503 26.02 1.25503 25.2C1.29503 24.93 1.28503 24.65 1.33503 24.37C1.40503 24 1.47503 23.62 1.60503 23.27C1.70503 22.99 1.89503 22.74 2.04503 22.47C2.10503 22.36 2.14503 22.24 2.19503 22.12C2.33503 21.76 2.61503 21.56 2.94503 21.42C3.05503 21.38 3.25503 21.46 3.35503 21.55C3.55503 21.74 3.70503 21.97 3.89503 22.2L3.92503 22.24ZM20.655 51.37C20.695 51.32 20.735 51.29 20.735 51.26C20.805 50.84 20.875 50.42 20.935 50C20.955 49.85 20.955 49.7 20.985 49.55C21.005 49.39 21.055 49.23 21.075 49.06C21.165 48.46 21.245 47.86 21.355 47.26C21.455 46.72 21.605 46.19 21.695 45.65C21.865 44.74 22.015 43.82 22.165 42.9C22.325 41.91 22.445 40.92 22.625 39.93C22.815 38.9 23.035 37.88 23.275 36.86C23.445 36.12 23.645 35.38 23.835 34.64C23.995 34.01 24.145 33.38 24.305 32.75C24.445 32.18 24.585 31.61 24.755 31.05C24.975 30.33 25.225 29.62 25.455 28.91C25.525 28.7 25.585 28.5 25.625 28.29C25.715 27.86 25.805 27.43 25.875 27C25.935 26.58 26.215 26.25 26.295 25.83C26.415 25.2 26.605 24.59 26.775 23.97C26.795 23.91 26.835 23.86 26.865 23.8C26.905 23.7 26.955 23.6 26.985 23.5C27.115 23.12 27.235 22.74 27.365 22.36C27.515 21.92 27.705 21.49 27.825 21.04C28.005 20.37 28.155 19.68 28.285 19C28.495 17.85 28.665 16.69 28.855 15.54C28.975 14.81 29.075 14.08 29.205 13.35C29.465 11.9 29.785 10.45 29.925 8.97997C30.005 8.16997 30.165 7.36997 30.275 6.55997C30.285 6.47997 30.275 6.40997 30.265 6.32997C30.145 6.42997 30.085 6.53997 30.005 6.62997C29.535 7.13997 29.305 7.78997 29.035 8.38997C28.705 9.10997 28.355 9.83997 28.215 10.64C28.155 10.97 27.985 11.28 27.865 11.6C27.735 11.94 27.635 12.31 27.465 12.63C27.175 13.16 26.995 13.72 26.865 14.31C26.735 14.92 26.585 15.53 26.415 16.12C26.295 16.54 26.125 16.95 25.975 17.36C25.945 17.45 25.855 17.52 25.835 17.61C25.745 18.02 25.685 18.43 25.575 18.83C25.475 19.22 25.315 19.6 25.195 19.99C25.015 20.6 24.855 21.22 24.675 21.83C24.535 22.32 24.365 22.8 24.245 23.29C24.125 23.78 24.035 24.28 23.945 24.78C23.865 25.18 23.795 25.58 23.725 25.98C23.635 26.43 23.535 26.88 23.445 27.33C23.395 27.57 23.365 27.81 23.305 28.04C23.195 28.46 23.055 28.88 22.955 29.31C22.875 29.64 22.855 29.98 22.785 30.32C22.575 31.4 22.315 32.48 22.155 33.58C22.045 34.31 21.875 35.03 21.725 35.75C21.665 36.05 21.585 36.34 21.565 36.64C21.525 37.15 21.475 37.66 21.495 38.16C21.525 38.79 21.375 39.4 21.275 40.01C21.205 40.42 21.155 40.84 21.095 41.25C20.985 41.94 20.965 42.64 20.925 43.34C20.905 43.7 20.875 44.07 20.895 44.43C20.915 44.84 20.905 45.24 20.835 45.64C20.725 46.28 20.615 46.92 20.565 47.57C20.515 48.09 20.535 48.61 20.535 49.13C20.535 49.4 20.555 49.66 20.555 49.93C20.555 50.36 20.565 50.79 20.585 51.22C20.585 51.26 20.615 51.3 20.645 51.37H20.655Z" fill="#565A4A"/>
</svg>
