<svg width="119" height="5" viewBox="0 0 119 5" fill="none" xmlns="http://www.w3.org/2000/svg">
<g clip-path="url(#clip0_238_432)">
<path d="M22.9252 3.70271C28.7431 3.51829 34.5609 3.51829 40.3787 3.43446C45.9116 2.54585 51.4276 2.61292 57.0107 2.91471C62.0406 2.69675 67.0704 2.47879 72.117 2.41172C76.2247 2.36143 80.3492 2.41172 84.4569 2.67998C85.1275 2.73028 85.7981 2.79734 86.4688 2.84764C91.6998 2.88117 96.8302 3.36739 102.078 4.0045C103.05 4.12187 104.023 4.23923 105.012 4.37336C108.499 4.45719 111.987 4.45719 115.474 4.44042C115.357 4.33983 115.239 4.23923 115.156 4.12187C115.072 3.98774 115.021 3.73625 115.105 3.60212C115.172 3.48476 115.407 3.38416 115.575 3.38416C115.793 3.38416 116.011 3.46799 116.229 3.55182C116.413 3.60212 116.581 3.70271 116.748 3.76978C117.033 3.87038 117.285 3.82008 117.486 3.61888C117.821 3.2668 118.173 2.91471 118.291 2.27759C117.453 1.95904 116.681 1.82491 115.893 1.75785C114.954 1.67401 113.999 1.65725 113.06 1.52312C111.819 1.35546 110.578 1.37222 109.321 1.45606C108.231 1.52312 107.125 1.59018 106.035 1.53989C104.023 1.45606 102.028 1.28839 100.033 1.1878C97.9871 1.0872 95.9416 1.02014 93.8962 0.953072C91.9345 0.902774 89.9561 0.869242 87.9945 0.818943C86.7035 0.785411 85.4293 0.684814 84.1383 0.684814C82.2102 0.684814 80.2821 0.718347 78.354 0.735113C78.0187 0.735113 77.6666 0.735113 77.3313 0.735113C75.8894 0.751879 74.4642 0.785411 73.0224 0.785411C71.7817 0.785411 70.5242 0.701581 69.2835 0.735113C67.7746 0.768645 66.2656 0.902774 64.7399 0.785411C64.3207 0.751879 63.9016 0.751879 63.4992 0.768645C61.0011 0.852476 58.5029 0.953072 56.0215 1.05367C53.4898 1.15427 50.9582 1.25486 48.4265 1.35546C47.7391 1.38899 47.0684 1.40576 46.381 1.43929C45.593 1.47282 44.7882 1.48959 44.0002 1.52312C42.7595 1.57342 41.5021 1.65725 40.2614 1.65725C37.3944 1.65725 34.5106 1.50635 31.6436 1.90874C31.6101 1.90874 31.5598 1.90874 31.5262 1.90874C30.3526 1.99257 29.1957 2.0764 28.0221 2.177C26.8988 2.27759 25.7587 2.39496 24.6354 2.52909C23.2438 2.67998 21.8354 2.78058 20.4774 3.04884C18.8008 3.38416 17.1241 3.61888 15.414 3.73625C14.1733 3.82008 12.9159 3.90391 11.6752 3.83684C9.51233 3.71948 7.36627 4.0045 5.22021 4.13863C4.24778 4.2057 3.25857 4.32306 2.28614 4.45719C1.83346 4.50749 1.39754 4.60808 0.961618 4.72545C0.743658 4.77575 0.525699 4.85958 0.307739 4.92664C7.83572 4.33983 15.3805 3.92067 22.942 3.66918L22.9252 3.70271Z" fill="#CB997E"/>
</g>
<defs>
<clipPath id="clip0_238_432">
<rect width="118" height="4.25859" fill="white" transform="translate(0.291016 0.684814)"/>
</clipPath>
</defs>
</svg>
