<svg width="37" height="45" viewBox="0 0 37 45" fill="none" xmlns="http://www.w3.org/2000/svg">
<path d="M5.73976 23.679C5.99244 23.787 6.24512 23.8951 6.5339 24.0152C6.5339 23.751 6.50984 23.4748 6.81065 23.4028C7.07537 23.3428 7.21976 23.1386 7.40024 22.9825C7.76122 22.6583 7.59276 22.2381 7.66496 21.8538C7.66496 21.8178 7.62886 21.7578 7.59276 21.7337C6.99114 21.1934 6.30528 20.8572 5.48707 20.8692C5.02984 20.8692 4.5726 20.9172 4.1274 20.9052C3.70626 20.9052 3.27309 20.8812 2.90008 20.6651C2.40675 20.3769 1.93748 20.4129 1.49228 20.7491C1.23959 20.9412 1.03504 21.2054 0.794391 21.4215C0.301057 21.8658 0.0243092 22.4062 0.0844718 23.0906C0.0844718 23.2227 0.000244141 23.3668 0.000244141 23.5109C0.000244141 23.6309 0.0243092 23.775 0.0965043 23.8591C0.31309 24.0992 0.758293 24.1593 1.07114 24.0512C1.42008 23.9311 1.76902 23.775 2.13 24.0152C2.22626 24.0752 2.38268 24.1112 2.50301 24.0872C3.06854 23.9792 3.67016 23.9191 4.19959 23.691C4.75309 23.4508 5.22236 23.4868 5.73976 23.691V23.679ZM5.35472 22.5983C5.18626 22.5022 5.06594 22.4422 4.93358 22.3701C5.35472 22.2261 5.35472 22.2261 5.35472 22.5983ZM21.0933 6.30404C21.2256 7.50479 21.2256 8.72956 21.2978 9.94232C21.3219 10.4226 21.4061 10.9029 21.4663 11.3832C21.4783 11.5273 21.5024 11.7194 21.6949 11.7074C21.8152 11.7074 21.9596 11.5994 22.0559 11.5033C22.1762 11.3832 22.2484 11.2151 22.3446 11.083C23.0907 11.2752 23.2952 11.1431 23.4877 10.3866C23.4998 10.3386 23.5118 10.2905 23.5238 10.2425C23.8006 8.98172 23.969 7.69691 24.4142 6.47214C24.6428 5.85976 24.691 5.21135 24.8594 4.58696C25.1001 3.68639 25.1723 2.78582 25.1121 1.86124C25.0159 0.49238 24.715 0.360297 23.4637 0.0481005C23.0185 -0.0599675 22.6334 7.02465e-05 22.3326 0.372304C22.2604 0.456357 22.1401 0.49238 22.0559 0.564425C21.6347 0.93666 21.1534 1.24886 21.0692 1.88526C21.0451 2.08938 20.9368 2.23348 20.7684 2.35355C20.3954 2.60571 20.4194 2.61772 20.5157 3.074C20.7323 4.15468 20.985 5.22336 21.1053 6.31604L21.0933 6.30404ZM22.8139 8.75358C22.8139 8.75358 22.862 8.77759 22.8981 8.7896C22.8861 8.87365 22.862 8.96971 22.85 9.05377C22.7658 9.02975 22.6936 9.00574 22.5612 8.96971C22.6815 8.86165 22.7537 8.80161 22.8259 8.74157L22.8139 8.75358ZM36.6754 34.6779C36.4708 34.3537 36.2061 34.0775 35.9414 33.8013C35.4481 33.285 34.9668 32.7687 34.4373 32.3004C33.8237 31.7601 33.2702 31.1957 33.0175 30.3912C32.9814 30.2831 32.9453 30.1751 32.8731 30.079C32.7167 29.8629 32.5723 29.5387 32.3557 29.4786C31.9707 29.3585 31.4773 29.2745 31.1163 29.4066C30.2981 29.7188 29.7807 30.3912 29.5281 31.2437C29.4318 31.5799 29.3716 31.9282 29.2874 32.2764C29.2633 32.4085 29.2393 32.5285 29.2032 32.7207C29.2032 32.7447 29.2032 32.8407 29.2513 32.8888C29.492 33.1409 29.7206 33.4291 30.0094 33.6332C31.1404 34.4257 32.2835 35.1942 33.4266 35.9507C34.0282 36.3469 34.6419 36.6952 35.2555 37.0554C35.5563 37.2355 35.6646 37.1995 35.8331 36.8993C35.8933 36.7912 35.9414 36.6591 36.0256 36.5631C36.0978 36.491 36.2061 36.407 36.3024 36.407C36.531 36.419 36.6633 36.3469 36.7476 36.1308C36.8198 35.9387 37.0243 35.7466 37.0002 35.5785C36.9641 35.2663 36.8318 34.9421 36.6633 34.6779H36.6754ZM10.5528 37.6077C10.5889 37.4396 10.6009 37.3316 10.637 37.1514C10.1196 37.4396 9.66236 37.6918 9.20512 37.956C8.80805 38.1841 8.43504 38.4242 8.03797 38.6644C7.6048 38.9286 7.1235 39.1327 6.72642 39.4449C5.98041 40.0453 5.28252 40.7057 4.80122 41.5462C4.45228 42.1706 4.27179 42.807 4.41618 43.5395C4.51244 44.0318 4.82528 44.2599 5.25846 44.4881C5.40285 43.9837 5.76382 43.7556 6.19699 43.6115C6.59407 43.4674 6.97911 43.3113 7.36415 43.1432C7.68902 43.0111 7.85748 42.735 7.97781 42.4348C8.05 42.2547 8.14626 42.0865 8.25455 41.9304C8.63959 41.3541 9.03667 40.7897 9.40968 40.2014C9.74659 39.685 10.1798 39.3128 10.7573 39.0847C10.9137 39.0246 11.0702 38.9166 11.1905 38.8085C11.3589 38.6524 11.4913 38.4363 11.6598 38.2802C11.9726 37.98 12.0087 37.7878 11.7801 37.3556C11.395 37.4396 10.998 37.5357 10.5528 37.6317V37.6077ZM29.1069 20.3649C29.1069 20.0887 29.0828 19.7765 28.9385 19.5724C28.6376 19.1161 28.7219 18.4677 28.2285 18.1195C28.0962 17.6512 27.7833 17.327 27.4825 16.9547C27.0734 16.4384 26.6884 15.9101 26.2432 15.4178C25.8822 15.0215 25.4731 14.6733 25.076 14.3371C24.8474 14.133 24.5466 14.0249 24.2217 14.0369C23.945 14.0369 23.6802 14.0489 23.4035 14.0369C22.5492 14.0129 21.6828 13.9889 20.8285 13.9528C20.3472 13.9288 19.89 14.0009 19.4689 14.229C19.2523 14.3491 19.0237 14.4692 18.795 14.5652C18.2656 14.7694 17.7241 14.5892 17.2188 14.4932C16.7856 14.4091 16.3645 14.3731 15.9193 14.3611C15.5703 14.3611 15.2936 14.4812 15.0409 14.7093C14.3911 15.2737 13.7414 15.838 13.1037 16.4024C12.8028 16.6786 12.502 16.9547 12.2494 17.2669C11.3228 18.3956 10.3963 19.5244 9.95114 20.9412C9.69846 21.7337 9.40968 22.5142 9.37358 23.3428C9.33748 24.1112 9.36155 24.8917 9.34951 25.6602C9.34951 27.1732 9.80675 28.5781 10.5648 29.8629C11.1785 30.9075 11.9485 31.8561 12.875 32.6606C13.5248 33.225 14.2227 33.7293 14.9807 34.1255C15.9794 34.6299 17.0744 34.6779 18.3739 34.7499C18.795 34.846 19.4087 34.6179 19.9502 34.3657C20.4435 34.1376 20.997 33.9334 21.3459 33.4411C21.3941 33.3811 21.4783 33.3571 21.5505 33.321C22.3206 32.8647 23.0907 32.4085 23.8487 31.9522C24.1976 31.748 24.5466 31.5319 24.8715 31.2918C25.7258 30.6554 26.3515 29.7908 27.0133 28.9743C27.1095 28.8662 27.1576 28.7221 27.2298 28.5901C27.302 28.458 27.3502 28.3139 27.4585 28.2178C27.7232 27.9777 27.8315 27.6535 27.9398 27.3293C27.9879 27.1732 28.0481 27.0171 28.1202 26.885C28.4692 26.3086 28.5895 25.6482 28.77 25.0118C28.9866 24.2433 29.143 23.4508 29.1069 22.6223C29.0708 21.8658 29.1069 21.1094 29.0949 20.3529L29.1069 20.3649ZM25.8341 24.4955C25.5934 25.5041 25.2084 26.4647 24.715 27.3893C24.5225 27.7375 24.3781 28.1218 24.2337 28.494C23.8607 29.5146 23.1388 30.2711 22.2965 30.8715C21.8994 31.1597 21.3339 31.2197 20.8285 31.3398C19.5651 31.64 18.3498 31.3998 17.1707 30.9315C16.4607 30.6554 15.9072 30.151 15.3417 29.6707C14.7401 29.1664 14.3791 28.506 14.0061 27.8456C13.7294 27.3533 13.5368 26.7889 13.6451 26.1765C13.7173 25.7443 13.7173 25.3 13.7534 24.8677C13.8376 23.703 14.2588 22.6703 14.8724 21.6977C15.1853 21.2054 15.5944 20.7851 15.8832 20.2808C16.0877 19.9206 16.3524 19.6324 16.6653 19.3803C16.918 19.1641 17.2067 18.984 17.4955 18.8039C17.652 18.7078 17.8084 18.7439 17.9287 18.888C17.9889 18.96 18.049 19.032 18.0731 19.0441C18.2897 18.948 18.4822 18.888 18.6507 18.7919C18.8552 18.6838 19.0477 18.5758 19.0718 18.2996C19.0718 18.1675 19.1199 18.0474 19.156 17.9153C19.2402 17.5791 19.4448 17.339 19.7817 17.2429C19.8539 17.2189 19.9502 17.1949 19.9983 17.1469C20.251 16.9187 20.5398 16.8106 20.8767 16.8106C21.2497 16.8106 21.6227 16.7746 22.0077 16.7746C23.0907 16.7866 23.7284 17.4591 24.3902 18.1555C24.8955 18.6958 25.2806 19.2962 25.6054 19.9566C25.8461 20.4489 25.9664 20.9533 26.0025 21.4936C26.0266 21.8178 26.0627 22.142 26.0988 22.4662C26.171 23.1626 26.0146 23.8231 25.8461 24.4835L25.8341 24.4955Z" fill="#140F0D"/>
</svg>
