<svg  viewBox="0 0 15 15" width="20px" height="20px" fill="none" xmlns="http://www.w3.org/2000/svg">
<path fill-rule="evenodd" clip-rule="evenodd" d="M4.50844 14.9958H10.4974L10.5017 15C12.9854 15 15.0072 12.9782 15.0072 10.4945V4.50551C15.0072 2.02176 12.9854 0 10.5017 0H4.51268C2.02893 0 0.00716817 2.02176 0.00292969 4.50127V10.4903C0.00292969 12.974 2.02469 14.9958 4.50844 14.9958ZM1.41858 4.50551C1.41858 2.7974 2.80881 1.41142 4.51268 1.41142H10.5017C12.2098 1.41142 13.5958 2.80164 13.5958 4.50551V10.4945C13.5958 12.2026 12.2055 13.5886 10.5017 13.5886H4.51268C2.80457 13.5886 1.41858 12.1984 1.41858 10.4945V4.50551ZM11.4765 2.67882C10.989 2.67882 10.5991 3.073 10.5991 3.55618C10.5991 4.03937 10.9933 4.43355 11.4765 4.43355C11.9596 4.43355 12.3538 4.03937 12.3538 3.55618C12.3538 3.073 11.9596 2.67882 11.4765 2.67882ZM7.56873 3.80637C5.53426 3.80637 3.87701 5.46362 3.87701 7.49809C3.87701 9.53257 5.53426 11.1898 7.56873 11.1898C9.6032 11.1898 11.2604 9.53257 11.2604 7.49809C11.2604 5.46362 9.6032 3.80637 7.56873 3.80637ZM7.56873 9.86317C6.26328 9.86317 5.20365 8.80355 5.20365 7.49809C5.20365 6.19264 6.26328 5.13302 7.56873 5.13302C8.87418 5.13302 9.9338 6.19264 9.9338 7.49809C9.9338 8.80355 8.87418 9.86317 7.56873 9.86317Z" fill="#F5EBE5"/>
</svg>
