<svg width="16" height="12" viewBox="0 0 16 12" fill="none" xmlns="http://www.w3.org/2000/svg">
<path d="M13.689 0H2.31097C1.03552 0 0 0.988613 0 2.2063V9.7937C0 11.0114 1.03552 12 2.31097 12H13.689C14.9645 12 16 11.0114 16 9.7937V2.2063C16 0.988613 14.9645 0 13.689 0ZM13.689 1.05291C13.7816 1.05291 13.8742 1.06497 13.9626 1.08506L9.16391 6.28533C8.86925 6.60281 8.44409 6.78768 8.00211 6.78768C7.56012 6.78768 7.13496 6.60683 6.84031 6.28533L2.03736 1.08506C2.12576 1.06497 2.21836 1.05291 2.31097 1.05291H13.689ZM14.8929 9.7937C14.8929 10.4287 14.3541 10.9431 13.689 10.9431H2.31097C1.64588 10.9431 1.10708 10.4287 1.10708 9.7937V2.2063C1.10708 2.05358 1.14075 1.90489 1.19547 1.76825L6.00684 6.98058C6.51197 7.52713 7.23599 7.84059 7.9979 7.84059C8.7598 7.84059 9.48382 7.52713 9.98895 6.98058L14.8003 1.76825C14.8592 1.90087 14.8887 2.04956 14.8887 2.2063V9.7937H14.8929Z" fill="#F5EBE5"/>
</svg>
