<svg width="13" height="16" viewBox="0 0 13 16" fill="none" xmlns="http://www.w3.org/2000/svg">
<path fill-rule="evenodd" clip-rule="evenodd" d="M5.43728 10.4375C5.42305 10.4827 5.40881 10.5234 5.39932 10.5596C4.78253 12.8615 4.71611 13.3725 4.08035 14.4443C3.7767 14.9508 3.43983 15.4347 3.06027 15.896C3.01757 15.9502 2.97961 16.0135 2.89421 16C2.79932 15.9819 2.79458 15.9005 2.78509 15.8326C2.68545 15.1317 2.62852 14.4307 2.65224 13.7252C2.68545 12.8072 2.80407 12.4906 4.04713 7.50252C4.06611 7.42564 4.04713 7.36233 4.01867 7.29449C3.71976 6.53022 3.66283 5.75238 3.92378 4.96097C4.48837 3.26057 6.50954 3.12943 6.86538 4.53135C7.08363 5.39964 6.5048 6.53474 6.06356 8.21705C5.69823 9.60088 7.40626 10.5867 8.87232 9.57827C10.2198 8.64667 10.7464 6.40812 10.6468 4.8253C10.4522 1.66419 6.81794 0.981321 4.5121 1.99884C1.8694 3.16561 1.26684 6.28601 2.46246 7.71507C2.61429 7.89596 2.72815 8.00902 2.68071 8.18991C2.6048 8.47482 2.53837 8.76425 2.45297 9.04916C2.39129 9.26171 2.20626 9.33858 1.98326 9.25266C1.54202 9.08533 1.17669 8.81399 0.87779 8.46578C-0.137539 7.26736 -0.426955 4.90218 0.915746 2.89879C2.38655 0.673802 5.15261 -0.226141 7.67195 0.0451987C10.6847 0.370806 12.5873 2.3335 12.9431 4.55848C13.1044 5.57149 12.9906 8.07233 11.496 9.84056C9.77852 11.8711 6.99348 12.0068 5.71246 10.7586C5.61283 10.6636 5.53217 10.5506 5.43728 10.4375Z" fill="#F5EBE5"/>
</svg>
