<svg  viewBox="0 0 50 45" xmlns="http://www.w3.org/2000/svg">
<path  d="M48.7021 13.4256C48.4255 12.3192 48.1064 11.2766 47.7447 10.2766C46.234 7.42558 44.2128 5.34047 42.1064 3.93622C38.0213 1.17026 33.5745 0.170258 29.1489 0.0851516C28.9787 0.0851516 28.8085 0.0425984 28.6596 0.0425984C27.5957 -0.042508 26.5745 0.0425984 25.5957 0.191535C24.617 0.276641 23.6596 0.383024 22.7021 0.510684C19.9574 0.914939 17.3617 1.57451 14.6383 2.72345C12.5532 3.59579 10.617 5.82983 8.61702 7.31919C8.34043 7.70217 8.06383 8.08515 7.78723 8.44685C7.59574 8.70217 7.3617 8.85111 7.14894 9.06388C6.53191 9.6809 5.91489 10.3192 5.31915 10.9362C5.17021 11.0852 5.04255 11.3192 4.89362 11.3405C4.2766 11.4256 3.93617 12.1703 3.57447 12.8937C3.44681 13.1703 3.29787 13.4469 3.14894 13.6809C2.48936 14.7022 1.93617 15.8511 1.70213 17.4256C1.68085 17.6383 1.59574 17.8298 1.51064 18C1.02128 19.1277 0.851064 20.4894 0.595745 21.8086C0.531915 22.149 0.595745 22.5745 0.638298 23.0639C0.829787 22.8937 0.93617 22.766 1.06383 22.6596C1.06383 22.766 1.10638 22.8937 1.12766 23C1 23.6383 0.851064 24.2979 0.702128 25.0426C0.553191 24.6809 0.446808 24.4469 0.276596 24.0639C0.148936 25.4043 0 26.5107 0 27.6383C0 28.5745 0.12766 29.532 0.191489 30.4681C0.276596 31.6596 0.574468 32.6809 0.957447 33.6383C1.19149 34.2766 1.55319 34.7873 1.7234 35.4681C1.93617 36.3192 2.38298 36.4043 2.7234 36.7022C2.89362 36.8511 3.12766 36.9362 3.31915 37.1064C4.10638 37.8511 4.89362 38.6383 5.70213 39.2979C6.44681 39.9149 7.19149 40.532 7.97872 40.9149C8.25532 41.0426 8.51064 41.2128 8.78723 41.383C10.5319 42.2554 12.234 43.2128 14.1064 43.7873C15.9787 44.3405 17.8511 44.7447 19.7447 45C21 44.8724 22.2553 44.7022 23.4894 44.5107C24.7234 44.3192 25.9787 44.0426 27.1915 43.6809C27.8723 43.4894 28.5745 43.5958 29.234 43C29.5957 42.6596 30.0426 42.5958 30.4681 42.4681C31.766 42.0852 33.0213 41.383 34.2766 40.7234C35.6383 40 36.8723 38.7873 38.1277 37.6383C38.5106 37.2979 38.8936 37 39.2766 36.6809C38.6596 36.8937 38.0851 37.2766 37.4894 37.6171C36.9149 37.9362 36.383 38.532 35.766 38.5958C36.6383 37.7022 37.617 37.3192 38.4468 36.3192C37.766 36.5958 37.1277 37.0426 36.4894 37.4256C38.6383 35.766 40.5319 33.8937 42.0426 31.8511C42.7234 31.1703 43.383 30.4681 44.0638 29.7873C44 30.0639 43.9574 30.2554 43.9149 30.4256C44.2766 30.383 44.6383 30.4256 44.766 29.6809C44.766 29.6171 44.8298 29.5745 44.8511 29.532C45.5319 28.8298 46.0213 27.7447 46.5319 26.7022C46.6383 26.4681 46.7872 26.2979 46.9149 26.1064L47.0426 26.2979C46.6383 27.766 45.9362 28.8937 45.4255 30.2554C45.8298 29.6809 46.2128 29.0639 46.5532 28.4043C47.0638 27.3618 47.5319 26.2554 47.8511 24.9575C47.9574 24.532 48.0426 23.9362 48.4255 23.9788C48.617 23.766 48.8298 23.532 48.5957 23.0639C48.5319 23.149 48.4681 23.2128 48.2979 23.4256C48.4043 23.0213 48.4255 22.766 48.5106 22.6809C48.8511 22.3192 48.9362 21.7447 48.9787 21.1064C49.0213 20.6596 49.0638 20.2341 49.1277 19.8086C49.4468 17.6171 49.2553 15.4469 48.766 13.4681L48.7021 13.4256ZM35.3191 38.5532C33.8085 39.8298 32.2128 40.5745 30.5532 41.0213C32.617 40.0426 34.5745 38.8511 36.3617 37.4894C36.0213 37.8724 35.6809 38.2554 35.2979 38.5532H35.3191Z"  />
</svg>
